<mxfile host="app.diagrams.net" agent="Mozilla/5.0 (Macintosh; Intel Mac OS X 10_15_7) AppleWebKit/537.36 (KHTML, like Gecko) Chrome/133.0.0.0 Safari/537.36" version="26.2.8" pages="2">
  <diagram name="Page-1" id="197159a0-c6a4-9194-75a8-e4174976684c">
    <mxGraphModel dx="2360" dy="1163" grid="1" gridSize="10" guides="1" tooltips="1" connect="1" arrows="1" fold="1" page="1" pageScale="1.5" pageWidth="1169" pageHeight="826" background="none" math="0" shadow="0">
      <root>
        <mxCell id="0" style=";html=1;" />
        <mxCell id="1" style=";html=1;" parent="0" />
        <mxCell id="V1fP8Ok8U7q3qZ9ysbPQ-24" value="" style="edgeStyle=orthogonalEdgeStyle;rounded=0;orthogonalLoop=1;jettySize=auto;html=1;" parent="1" edge="1">
          <mxGeometry relative="1" as="geometry">
            <mxPoint x="175" y="130" as="sourcePoint" />
          </mxGeometry>
        </mxCell>
        <mxCell id="V1fP8Ok8U7q3qZ9ysbPQ-25" value="" style="pointerEvents=1;shadow=0;dashed=0;html=1;strokeColor=none;fillColor=#4495D1;labelPosition=center;verticalLabelPosition=bottom;verticalAlign=top;align=center;outlineConnect=0;shape=mxgraph.veeam.2d.switch;" parent="1" vertex="1">
          <mxGeometry x="210" y="680" width="1330" height="50" as="geometry" />
        </mxCell>
        <mxCell id="V1fP8Ok8U7q3qZ9ysbPQ-34" value="" style="pointerEvents=1;shadow=0;dashed=0;html=1;strokeColor=none;fillColor=#4495D1;labelPosition=center;verticalLabelPosition=bottom;verticalAlign=top;align=center;outlineConnect=0;shape=mxgraph.veeam.server;" parent="1" vertex="1">
          <mxGeometry x="300" y="240" width="450" height="49.4" as="geometry" />
        </mxCell>
        <mxCell id="V1fP8Ok8U7q3qZ9ysbPQ-153" value="" style="edgeStyle=orthogonalEdgeStyle;rounded=0;orthogonalLoop=1;jettySize=auto;html=1;" parent="1" source="V1fP8Ok8U7q3qZ9ysbPQ-36" target="V1fP8Ok8U7q3qZ9ysbPQ-126" edge="1">
          <mxGeometry relative="1" as="geometry" />
        </mxCell>
        <mxCell id="Qs-pVyy2RuvGPjBRmzeA-11" value="" style="edgeStyle=orthogonalEdgeStyle;rounded=0;orthogonalLoop=1;jettySize=auto;html=1;" edge="1" parent="1" source="V1fP8Ok8U7q3qZ9ysbPQ-36" target="Qs-pVyy2RuvGPjBRmzeA-10">
          <mxGeometry relative="1" as="geometry" />
        </mxCell>
        <mxCell id="V1fP8Ok8U7q3qZ9ysbPQ-36" style="vsdxID=5;fillColor=none;gradientColor=none;points=[];labelBackgroundColor=none;rounded=0;strokeColor=none;html=1;whiteSpace=wrap;" parent="1" vertex="1">
          <mxGeometry x="310" y="340" width="50" height="40" as="geometry" />
        </mxCell>
        <mxCell id="V1fP8Ok8U7q3qZ9ysbPQ-37" style="vsdxID=6;fillColor=#000000;gradientColor=none;shape=stencil(pZLNDsIgEISfZq/NAomp51rfo0mpEBEain9vL7gxWK0m4m0Y5lvYZEA0k+pGCRyn4N1ennUfFIgNcK6tkl6HqEC0IJrBebnz7mh7Oo9dSiZ1cKc04UJcvaoYSxTHKzlMVPX67mwJMNp+BbKzCOR5xcDPX3oD5kszxFkcP88uDD5eWF4Q/wiXRqPIHRi0MVSh5/vXzkSL+ibaGw==);strokeColor=none;spacingTop=-3;spacingBottom=-3;spacingLeft=-3;spacingRight=-3;points=[];labelBackgroundColor=none;rounded=0;html=1;whiteSpace=wrap;" parent="V1fP8Ok8U7q3qZ9ysbPQ-36" vertex="1">
          <mxGeometry x="26" y="10.526315789473683" width="14" height="14.736842105263158" as="geometry" />
        </mxCell>
        <mxCell id="V1fP8Ok8U7q3qZ9ysbPQ-38" style="vsdxID=7;fillColor=#000000;gradientColor=none;shape=stencil(UzV2Ls5ILEhVNTIoLinKz04tz0wpyVA1dlE1MsrMy0gtyiwBslSNXVWNndPyi1LTi/JL81Ig/IJEkEoQKze/DGRCBUSfoYEBSI+RQSUq3w2iOCczD0kx2UotjfRMTXArtjTVMzClTIO5nokZsa4hRS0eL6IHHQlK0YIOyEDET1pmTg4kepHl0eMTKARJC8auAA==);strokeColor=none;spacingTop=-3;spacingBottom=-3;spacingLeft=-3;spacingRight=-3;points=[];labelBackgroundColor=none;rounded=0;html=1;whiteSpace=wrap;" parent="V1fP8Ok8U7q3qZ9ysbPQ-36" vertex="1">
          <mxGeometry x="8" y="4.2105263157894735" width="42" height="29.473684210526315" as="geometry" />
        </mxCell>
        <mxCell id="V1fP8Ok8U7q3qZ9ysbPQ-39" style="vsdxID=8;fillColor=#000000;gradientColor=none;shape=stencil(pZLdDsIgDIWfhluC7Rx6Ped7LBkTIsLC8O/tBYnREWeyeXdavtOW5BCsBtn0ggAbvLNHcVWtlwR3BEAZKZzyQRGsCVaddeLg7Nm0qe6bSEZ1spc44ZZ8Jae8iC5g99RZU755NvaJ18r85LcFjeWUAYFC+Z9h7kU5P/7xirERzaZHLwRfG76i+fpZ8FI0iHcAOqV1ys/nex6Y0Ephw/oB);strokeColor=none;spacingTop=-3;spacingBottom=-3;spacingLeft=-3;spacingRight=-3;points=[];labelBackgroundColor=none;rounded=0;html=1;whiteSpace=wrap;" parent="V1fP8Ok8U7q3qZ9ysbPQ-36" vertex="1">
          <mxGeometry width="6" height="37.89473684210526" as="geometry" />
        </mxCell>
        <mxCell id="V1fP8Ok8U7q3qZ9ysbPQ-40" style="vsdxID=9;fillColor=#000000;gradientColor=none;shape=stencil(nZRLEoIwDIZP0y0TGpVx7eMejqJ0RHAqKNxeMDDERiq6a8OX5s+DKFzdkt01Vhpuhc3P8cMcikThWmltsiS2pmhOCjcKV8fcxiebl9mB7tddS7anS35vX6jIbw6ti4aarloHEb4sW6L3pSU8JGAxD5Zh5xK6PlBpMkVRoKOO6kw4C2DZUSgpfJMzEpw7SD19cC5R6qnQSVyIGQnOEqilnj44K0Yt9fTBOfUx89RkrEkcn1Inzkv1lexILdWP1UlMiHeefpUJ7xLhqzzwVdENCOqP9oUA/or0wPShHZ50Y3gGdmAm5TrgP/2mX3L1DKmv89PJ5jCsqqNJU9p0/Lu72hoTrUXcPAE=);strokeColor=none;spacingTop=-3;spacingBottom=-3;spacingLeft=-3;spacingRight=-3;points=[];labelBackgroundColor=none;rounded=0;html=1;whiteSpace=wrap;" parent="V1fP8Ok8U7q3qZ9ysbPQ-36" vertex="1">
          <mxGeometry x="10" y="12.631578947368421" width="8" height="8.421052631578947" as="geometry" />
        </mxCell>
        <mxCell id="V1fP8Ok8U7q3qZ9ysbPQ-41" style="vsdxID=10;fillColor=#000000;gradientColor=none;shape=stencil(nZBLDoAgDERP0z3SIyjew0SURgSD+Lu9kMZoXLhwN9O+tukAlrNpJg1SzDH4QW/URgNYgZTkjA4UkwJUgGXng+6DX1zLfmoymdXo17xh5zmRJ6Q42BWCfc2oJfdAr+Yv+AP9Cb7OJ3H/2JG1HNGz/84klThPVCc=);strokeColor=none;spacingTop=-3;spacingBottom=-3;spacingLeft=-3;spacingRight=-3;points=[];labelBackgroundColor=none;rounded=0;html=1;whiteSpace=wrap;" parent="V1fP8Ok8U7q3qZ9ysbPQ-36" vertex="1">
          <mxGeometry x="18" y="16.842105263157894" width="6" height="2.1052631578947367" as="geometry" />
        </mxCell>
        <mxCell id="V1fP8Ok8U7q3qZ9ysbPQ-42" style="vsdxID=11;fillColor=#000000;gradientColor=none;shape=stencil(nZBLDoAgDERP0z3SIyjew0SURgSD+Lu9kMZoXLhwN9O+tukAlrNpJg1SzDH4QW/URgNYgZTkjA4UkwJUgGXng+6DX1zLfmoymdXo17xh5zmRJ6Q42BWCfc2oJfdAr+Yv+AP9Cb7OJ3H/2JG1HNGz/84klThPVCc=);strokeColor=none;spacingTop=-3;spacingBottom=-3;spacingLeft=-3;spacingRight=-3;points=[];labelBackgroundColor=none;rounded=0;html=1;whiteSpace=wrap;" parent="V1fP8Ok8U7q3qZ9ysbPQ-36" vertex="1">
          <mxGeometry x="26" y="33.68421052631579" height="4.2105263157894735" as="geometry" />
        </mxCell>
        <mxCell id="V1fP8Ok8U7q3qZ9ysbPQ-43" style="vsdxID=12;fillColor=#000000;gradientColor=none;shape=stencil(nZBLDoAgDERP0z3SIyjew0SURgSD+Lu9kMZoXLhwN9O+tukAlrNpJg1SzDH4QW/URgNYgZTkjA4UkwJUgGXng+6DX1zLfmoymdXo17xh5zmRJ6Q42BWCfc2oJfdAr+Yv+AP9Cb7OJ3H/2JG1HNGz/84klThPVCc=);strokeColor=none;spacingTop=-3;spacingBottom=-3;spacingLeft=-3;spacingRight=-3;points=[];labelBackgroundColor=none;rounded=0;html=1;whiteSpace=wrap;" parent="V1fP8Ok8U7q3qZ9ysbPQ-36" vertex="1">
          <mxGeometry x="30" y="33.68421052631579" height="4.2105263157894735" as="geometry" />
        </mxCell>
        <mxCell id="V1fP8Ok8U7q3qZ9ysbPQ-44" style="vsdxID=13;fillColor=#000000;gradientColor=none;shape=stencil(nZBLDoAgDERP0z3SIyjew0SURgSD+Lu9kMZoXLhwN9O+tukAlrNpJg1SzDH4QW/URgNYgZTkjA4UkwJUgGXng+6DX1zLfmoymdXo17xh5zmRJ6Q42BWCfc2oJfdAr+Yv+AP9Cb7OJ3H/2JG1HNGz/84klThPVCc=);strokeColor=none;spacingTop=-3;spacingBottom=-3;spacingLeft=-3;spacingRight=-3;points=[];labelBackgroundColor=none;rounded=0;html=1;whiteSpace=wrap;" parent="V1fP8Ok8U7q3qZ9ysbPQ-36" vertex="1">
          <mxGeometry x="34" y="33.68421052631579" height="4.2105263157894735" as="geometry" />
        </mxCell>
        <mxCell id="V1fP8Ok8U7q3qZ9ysbPQ-45" style="vsdxID=14;fillColor=#000000;gradientColor=none;shape=stencil(nZBLDoAgDERP0z3SIyjew0SURgSD+Lu9kMZoXLhwN9O+tukAlrNpJg1SzDH4QW/URgNYgZTkjA4UkwJUgGXng+6DX1zLfmoymdXo17xh5zmRJ6Q42BWCfc2oJfdAr+Yv+AP9Cb7OJ3H/2JG1HNGz/84klThPVCc=);strokeColor=none;spacingTop=-3;spacingBottom=-3;spacingLeft=-3;spacingRight=-3;points=[];labelBackgroundColor=none;rounded=0;html=1;whiteSpace=wrap;" parent="V1fP8Ok8U7q3qZ9ysbPQ-36" vertex="1">
          <mxGeometry x="38" y="33.68421052631579" height="4.2105263157894735" as="geometry" />
        </mxCell>
        <mxCell id="V1fP8Ok8U7q3qZ9ysbPQ-46" style="vsdxID=15;fillColor=#000000;gradientColor=none;shape=stencil(UzV2Ls5ILEhVNTIoLinKz04tz0wpyVA1dlE1MsrMy0gtyiwBslSNXVWNndPyi1LTi/JL81Ig/IJEkEoQKze/DGRCBUSfoYEBSI+RQSUq3w2iOCczD0kx2UrxKDTTMzUhW62ZpZ6RMW71lsZ6JmaUacDjGvSgI0EpWtABGYj4ScvMyYFEL7I8enwChSBpwdgVAA==);strokeColor=none;spacingTop=-3;spacingBottom=-3;spacingLeft=-3;spacingRight=-3;points=[];labelBackgroundColor=none;rounded=0;html=1;whiteSpace=wrap;" parent="V1fP8Ok8U7q3qZ9ysbPQ-36" vertex="1">
          <mxGeometry x="20" y="33.68421052631579" width="22" height="4.2105263157894735" as="geometry" />
        </mxCell>
        <mxCell id="V1fP8Ok8U7q3qZ9ysbPQ-154" value="" style="edgeStyle=orthogonalEdgeStyle;rounded=0;orthogonalLoop=1;jettySize=auto;html=1;" parent="1" source="V1fP8Ok8U7q3qZ9ysbPQ-47" target="V1fP8Ok8U7q3qZ9ysbPQ-128" edge="1">
          <mxGeometry relative="1" as="geometry" />
        </mxCell>
        <mxCell id="Qs-pVyy2RuvGPjBRmzeA-9" value="" style="edgeStyle=orthogonalEdgeStyle;rounded=0;orthogonalLoop=1;jettySize=auto;html=1;" edge="1" parent="1" source="V1fP8Ok8U7q3qZ9ysbPQ-47" target="Qs-pVyy2RuvGPjBRmzeA-8">
          <mxGeometry relative="1" as="geometry">
            <Array as="points">
              <mxPoint x="435" y="680" />
            </Array>
          </mxGeometry>
        </mxCell>
        <mxCell id="V1fP8Ok8U7q3qZ9ysbPQ-47" style="vsdxID=5;fillColor=none;gradientColor=none;points=[];labelBackgroundColor=none;rounded=0;strokeColor=none;html=1;whiteSpace=wrap;" parent="1" vertex="1">
          <mxGeometry x="410" y="340" width="50" height="40" as="geometry" />
        </mxCell>
        <mxCell id="V1fP8Ok8U7q3qZ9ysbPQ-48" style="vsdxID=6;fillColor=#000000;gradientColor=none;shape=stencil(pZLNDsIgEISfZq/NAomp51rfo0mpEBEain9vL7gxWK0m4m0Y5lvYZEA0k+pGCRyn4N1ennUfFIgNcK6tkl6HqEC0IJrBebnz7mh7Oo9dSiZ1cKc04UJcvaoYSxTHKzlMVPX67mwJMNp+BbKzCOR5xcDPX3oD5kszxFkcP88uDD5eWF4Q/wiXRqPIHRi0MVSh5/vXzkSL+ibaGw==);strokeColor=none;spacingTop=-3;spacingBottom=-3;spacingLeft=-3;spacingRight=-3;points=[];labelBackgroundColor=none;rounded=0;html=1;whiteSpace=wrap;" parent="V1fP8Ok8U7q3qZ9ysbPQ-47" vertex="1">
          <mxGeometry x="26" y="10.526315789473683" width="14" height="14.736842105263158" as="geometry" />
        </mxCell>
        <mxCell id="V1fP8Ok8U7q3qZ9ysbPQ-49" style="vsdxID=7;fillColor=#000000;gradientColor=none;shape=stencil(UzV2Ls5ILEhVNTIoLinKz04tz0wpyVA1dlE1MsrMy0gtyiwBslSNXVWNndPyi1LTi/JL81Ig/IJEkEoQKze/DGRCBUSfoYEBSI+RQSUq3w2iOCczD0kx2UotjfRMTXArtjTVMzClTIO5nokZsa4hRS0eL6IHHQlK0YIOyEDET1pmTg4kepHl0eMTKARJC8auAA==);strokeColor=none;spacingTop=-3;spacingBottom=-3;spacingLeft=-3;spacingRight=-3;points=[];labelBackgroundColor=none;rounded=0;html=1;whiteSpace=wrap;" parent="V1fP8Ok8U7q3qZ9ysbPQ-47" vertex="1">
          <mxGeometry x="8" y="4.2105263157894735" width="42" height="29.473684210526315" as="geometry" />
        </mxCell>
        <mxCell id="V1fP8Ok8U7q3qZ9ysbPQ-50" style="vsdxID=8;fillColor=#000000;gradientColor=none;shape=stencil(pZLdDsIgDIWfhluC7Rx6Ped7LBkTIsLC8O/tBYnREWeyeXdavtOW5BCsBtn0ggAbvLNHcVWtlwR3BEAZKZzyQRGsCVaddeLg7Nm0qe6bSEZ1spc44ZZ8Jae8iC5g99RZU755NvaJ18r85LcFjeWUAYFC+Z9h7kU5P/7xirERzaZHLwRfG76i+fpZ8FI0iHcAOqV1ys/nex6Y0Ephw/oB);strokeColor=none;spacingTop=-3;spacingBottom=-3;spacingLeft=-3;spacingRight=-3;points=[];labelBackgroundColor=none;rounded=0;html=1;whiteSpace=wrap;" parent="V1fP8Ok8U7q3qZ9ysbPQ-47" vertex="1">
          <mxGeometry width="6" height="37.89473684210526" as="geometry" />
        </mxCell>
        <mxCell id="V1fP8Ok8U7q3qZ9ysbPQ-51" style="vsdxID=9;fillColor=#000000;gradientColor=none;shape=stencil(nZRLEoIwDIZP0y0TGpVx7eMejqJ0RHAqKNxeMDDERiq6a8OX5s+DKFzdkt01Vhpuhc3P8cMcikThWmltsiS2pmhOCjcKV8fcxiebl9mB7tddS7anS35vX6jIbw6ti4aarloHEb4sW6L3pSU8JGAxD5Zh5xK6PlBpMkVRoKOO6kw4C2DZUSgpfJMzEpw7SD19cC5R6qnQSVyIGQnOEqilnj44K0Yt9fTBOfUx89RkrEkcn1Inzkv1lexILdWP1UlMiHeefpUJ7xLhqzzwVdENCOqP9oUA/or0wPShHZ50Y3gGdmAm5TrgP/2mX3L1DKmv89PJ5jCsqqNJU9p0/Lu72hoTrUXcPAE=);strokeColor=none;spacingTop=-3;spacingBottom=-3;spacingLeft=-3;spacingRight=-3;points=[];labelBackgroundColor=none;rounded=0;html=1;whiteSpace=wrap;" parent="V1fP8Ok8U7q3qZ9ysbPQ-47" vertex="1">
          <mxGeometry x="10" y="12.631578947368421" width="8" height="8.421052631578947" as="geometry" />
        </mxCell>
        <mxCell id="V1fP8Ok8U7q3qZ9ysbPQ-52" style="vsdxID=10;fillColor=#000000;gradientColor=none;shape=stencil(nZBLDoAgDERP0z3SIyjew0SURgSD+Lu9kMZoXLhwN9O+tukAlrNpJg1SzDH4QW/URgNYgZTkjA4UkwJUgGXng+6DX1zLfmoymdXo17xh5zmRJ6Q42BWCfc2oJfdAr+Yv+AP9Cb7OJ3H/2JG1HNGz/84klThPVCc=);strokeColor=none;spacingTop=-3;spacingBottom=-3;spacingLeft=-3;spacingRight=-3;points=[];labelBackgroundColor=none;rounded=0;html=1;whiteSpace=wrap;" parent="V1fP8Ok8U7q3qZ9ysbPQ-47" vertex="1">
          <mxGeometry x="18" y="16.842105263157894" width="6" height="2.1052631578947367" as="geometry" />
        </mxCell>
        <mxCell id="V1fP8Ok8U7q3qZ9ysbPQ-53" style="vsdxID=11;fillColor=#000000;gradientColor=none;shape=stencil(nZBLDoAgDERP0z3SIyjew0SURgSD+Lu9kMZoXLhwN9O+tukAlrNpJg1SzDH4QW/URgNYgZTkjA4UkwJUgGXng+6DX1zLfmoymdXo17xh5zmRJ6Q42BWCfc2oJfdAr+Yv+AP9Cb7OJ3H/2JG1HNGz/84klThPVCc=);strokeColor=none;spacingTop=-3;spacingBottom=-3;spacingLeft=-3;spacingRight=-3;points=[];labelBackgroundColor=none;rounded=0;html=1;whiteSpace=wrap;" parent="V1fP8Ok8U7q3qZ9ysbPQ-47" vertex="1">
          <mxGeometry x="26" y="33.68421052631579" height="4.2105263157894735" as="geometry" />
        </mxCell>
        <mxCell id="V1fP8Ok8U7q3qZ9ysbPQ-54" style="vsdxID=12;fillColor=#000000;gradientColor=none;shape=stencil(nZBLDoAgDERP0z3SIyjew0SURgSD+Lu9kMZoXLhwN9O+tukAlrNpJg1SzDH4QW/URgNYgZTkjA4UkwJUgGXng+6DX1zLfmoymdXo17xh5zmRJ6Q42BWCfc2oJfdAr+Yv+AP9Cb7OJ3H/2JG1HNGz/84klThPVCc=);strokeColor=none;spacingTop=-3;spacingBottom=-3;spacingLeft=-3;spacingRight=-3;points=[];labelBackgroundColor=none;rounded=0;html=1;whiteSpace=wrap;" parent="V1fP8Ok8U7q3qZ9ysbPQ-47" vertex="1">
          <mxGeometry x="30" y="33.68421052631579" height="4.2105263157894735" as="geometry" />
        </mxCell>
        <mxCell id="V1fP8Ok8U7q3qZ9ysbPQ-55" style="vsdxID=13;fillColor=#000000;gradientColor=none;shape=stencil(nZBLDoAgDERP0z3SIyjew0SURgSD+Lu9kMZoXLhwN9O+tukAlrNpJg1SzDH4QW/URgNYgZTkjA4UkwJUgGXng+6DX1zLfmoymdXo17xh5zmRJ6Q42BWCfc2oJfdAr+Yv+AP9Cb7OJ3H/2JG1HNGz/84klThPVCc=);strokeColor=none;spacingTop=-3;spacingBottom=-3;spacingLeft=-3;spacingRight=-3;points=[];labelBackgroundColor=none;rounded=0;html=1;whiteSpace=wrap;" parent="V1fP8Ok8U7q3qZ9ysbPQ-47" vertex="1">
          <mxGeometry x="34" y="33.68421052631579" height="4.2105263157894735" as="geometry" />
        </mxCell>
        <mxCell id="V1fP8Ok8U7q3qZ9ysbPQ-56" style="vsdxID=14;fillColor=#000000;gradientColor=none;shape=stencil(nZBLDoAgDERP0z3SIyjew0SURgSD+Lu9kMZoXLhwN9O+tukAlrNpJg1SzDH4QW/URgNYgZTkjA4UkwJUgGXng+6DX1zLfmoymdXo17xh5zmRJ6Q42BWCfc2oJfdAr+Yv+AP9Cb7OJ3H/2JG1HNGz/84klThPVCc=);strokeColor=none;spacingTop=-3;spacingBottom=-3;spacingLeft=-3;spacingRight=-3;points=[];labelBackgroundColor=none;rounded=0;html=1;whiteSpace=wrap;" parent="V1fP8Ok8U7q3qZ9ysbPQ-47" vertex="1">
          <mxGeometry x="38" y="33.68421052631579" height="4.2105263157894735" as="geometry" />
        </mxCell>
        <mxCell id="V1fP8Ok8U7q3qZ9ysbPQ-57" style="vsdxID=15;fillColor=#000000;gradientColor=none;shape=stencil(UzV2Ls5ILEhVNTIoLinKz04tz0wpyVA1dlE1MsrMy0gtyiwBslSNXVWNndPyi1LTi/JL81Ig/IJEkEoQKze/DGRCBUSfoYEBSI+RQSUq3w2iOCczD0kx2UrxKDTTMzUhW62ZpZ6RMW71lsZ6JmaUacDjGvSgI0EpWtABGYj4ScvMyYFEL7I8enwChSBpwdgVAA==);strokeColor=none;spacingTop=-3;spacingBottom=-3;spacingLeft=-3;spacingRight=-3;points=[];labelBackgroundColor=none;rounded=0;html=1;whiteSpace=wrap;" parent="V1fP8Ok8U7q3qZ9ysbPQ-47" vertex="1">
          <mxGeometry x="20" y="33.68421052631579" width="22" height="4.2105263157894735" as="geometry" />
        </mxCell>
        <mxCell id="V1fP8Ok8U7q3qZ9ysbPQ-124" style="vsdxID=5;fillColor=none;gradientColor=none;points=[];labelBackgroundColor=none;rounded=0;strokeColor=none;html=1;whiteSpace=wrap;" parent="1" vertex="1">
          <mxGeometry x="340" y="180" width="110" height="40" as="geometry" />
        </mxCell>
        <mxCell id="V1fP8Ok8U7q3qZ9ysbPQ-125" style="vsdxID=6;fillColor=#000000;gradientColor=none;shape=stencil(UzV2Ls5ILEhVNTIoLinKz04tz0wpyVA1dlE1MsrMy0gtyiwBslSNXVWNndPyi1LTi/JL81Ig/IJEkEoQKze/DGRCBUSfpZmeGUiTkUElRMBcz8gULOAGUZ6TmYdPuaWRnjke9cZ6JpQoJ9Ex6MpRvWpoYICi2gC3yWQqhNmAVSm69SQppoNSIAORSNIyc3IgaQxZHj1RAYUgCdLYFQA=);strokeColor=none;spacingTop=-3;spacingBottom=-3;spacingLeft=-3;spacingRight=-3;points=[];labelBackgroundColor=none;rounded=0;html=1;whiteSpace=wrap;" parent="V1fP8Ok8U7q3qZ9ysbPQ-124" vertex="1">
          <mxGeometry width="110.00000000000001" height="40" as="geometry" />
        </mxCell>
        <mxCell id="V1fP8Ok8U7q3qZ9ysbPQ-126" style="vsdxID=7;fillColor=#000000;gradientColor=none;shape=stencil(pZXdbsIwDIWfJrdWbOev1wzeA4lCI7oWlbLB29MSIaZtbUR959jni06k6Fjx6lxtT6Uife679lh+x11fKf5QRLGpyi72Q6V4rXi1b7vy0LWXZpfOp+2oHKvP9mu84Zo47yDgSJG+pQ5acPzobBJQx2YW0NNiYsBiuThjRS8XFxYYp8VowBQygBHITgPswQUZkHmwI2CSARlLwYJFGRAMcJj5bAHIyQCPEGYAx+C9DMhYsg4syYCMJUOgWQZkLLEDEgIZS4TgjQwo6Jkf/wMerBBAPRNfz+Ey8buh+wcYilfG72NdpxXxc/57JwyttE94fQc=);strokeColor=none;spacingTop=-3;spacingBottom=-3;spacingLeft=-3;spacingRight=-3;points=[];labelBackgroundColor=none;rounded=0;html=1;whiteSpace=wrap;" parent="V1fP8Ok8U7q3qZ9ysbPQ-124" vertex="1">
          <mxGeometry x="10.645555555555557" y="8.57" width="26.02111111111111" height="17.14" as="geometry" />
        </mxCell>
        <mxCell id="V1fP8Ok8U7q3qZ9ysbPQ-127" style="vsdxID=8;fillColor=#000000;gradientColor=none;shape=stencil(pdXbboMwDAbgp8mtFds5Xnfde1QqHdEYVJSd3n6waGrVikTDd8H5P2QkZCveXdrDuVGkL9M4vDaf6Ti1ip8UUerbZkzTfFK8V7w7DWPzMg7v/TE/nw9Lcjm9DR/LG76y8w4CLor0d66gBce/lecMutQXgV4PE4I328OVVvT2cLTAuB5GAybKACOQXQfsgFgGKh/sCJhkoNJSsGBRBoIBDoWfLQA5GfAIoQAcg/cyUGnJOrAkA5WWDIFmGai0xAZ8kIFKS6SBogxEAowF4MEaGUBdGF9/l9vC/x26D2A+XGf8KXVdXhG39/c7YS7lfcL7Hw==);strokeColor=none;spacingTop=-3;spacingBottom=-3;spacingLeft=-3;spacingRight=-3;points=[];labelBackgroundColor=none;rounded=0;html=1;whiteSpace=wrap;" parent="V1fP8Ok8U7q3qZ9ysbPQ-124" vertex="1">
          <mxGeometry x="39.032258064516135" y="8.571428571428571" width="24.83870967741936" height="17.142857142857142" as="geometry" />
        </mxCell>
        <mxCell id="V1fP8Ok8U7q3qZ9ysbPQ-128" style="vsdxID=9;fillColor=#000000;gradientColor=none;shape=stencil(pZXdbsIwDIWfJrdWbOev1wzeA4lCI7oWlbLB29MSIaZtbUR959jni06k6Fjx6lxtT6Uife679lh+x11fKf5QRLGpyi72Q6V4rXi1b7vy0LWXZpfOp+2oHKvP9mu84Zo47yDgSJG+pQ5acPzobBJQx2YW0NNiYsBiuThjRS8XFxYYp8VowBQygBHITgPswQUZkHmwI2CSARlLwYJFGRAMcJj5bAHIyQCPEGYAx+C9DMhYsg4syYCMJUOgWQZkLLEDEgIZS4TgjQwo6Jkf/wMerBBAPRNfz+Ey8buh+wcYilfG72NdpxXxc/57JwyttE94fQc=);strokeColor=none;spacingTop=-3;spacingBottom=-3;spacingLeft=-3;spacingRight=-3;points=[];labelBackgroundColor=none;rounded=0;html=1;whiteSpace=wrap;" parent="V1fP8Ok8U7q3qZ9ysbPQ-124" vertex="1">
          <mxGeometry x="70.96774193548387" y="8.571428571428571" width="24.83870967741936" height="17.142857142857142" as="geometry" />
        </mxCell>
        <mxCell id="V1fP8Ok8U7q3qZ9ysbPQ-145" value="" style="shadow=0;dashed=0;html=1;strokeColor=none;fillColor=#4495D1;labelPosition=center;verticalLabelPosition=bottom;verticalAlign=top;align=center;outlineConnect=0;shape=mxgraph.veeam.2d.virtual_machine;" parent="1" vertex="1">
          <mxGeometry x="235.2" y="90" width="44.8" height="44" as="geometry" />
        </mxCell>
        <mxCell id="V1fP8Ok8U7q3qZ9ysbPQ-146" value="" style="shadow=0;dashed=0;html=1;strokeColor=none;fillColor=#4495D1;labelPosition=center;verticalLabelPosition=bottom;verticalAlign=top;align=center;outlineConnect=0;shape=mxgraph.veeam.vm_windows;" parent="1" vertex="1">
          <mxGeometry x="340" y="90" width="57.2" height="55.2" as="geometry" />
        </mxCell>
        <mxCell id="V1fP8Ok8U7q3qZ9ysbPQ-147" value="" style="shadow=0;dashed=0;html=1;strokeColor=none;fillColor=#4495D1;labelPosition=center;verticalLabelPosition=bottom;verticalAlign=top;align=center;outlineConnect=0;shape=mxgraph.veeam.vm_linux;" parent="1" vertex="1">
          <mxGeometry x="460" y="89.99999999999997" width="57.2" height="55.2" as="geometry" />
        </mxCell>
        <mxCell id="V1fP8Ok8U7q3qZ9ysbPQ-184" value="" style="edgeStyle=orthogonalEdgeStyle;rounded=0;orthogonalLoop=1;jettySize=auto;html=1;" parent="1" source="V1fP8Ok8U7q3qZ9ysbPQ-185" target="V1fP8Ok8U7q3qZ9ysbPQ-210" edge="1">
          <mxGeometry relative="1" as="geometry" />
        </mxCell>
        <mxCell id="Qs-pVyy2RuvGPjBRmzeA-13" value="" style="edgeStyle=orthogonalEdgeStyle;rounded=0;orthogonalLoop=1;jettySize=auto;html=1;" edge="1" parent="1" source="V1fP8Ok8U7q3qZ9ysbPQ-185" target="Qs-pVyy2RuvGPjBRmzeA-12">
          <mxGeometry relative="1" as="geometry" />
        </mxCell>
        <mxCell id="V1fP8Ok8U7q3qZ9ysbPQ-185" style="vsdxID=5;fillColor=none;gradientColor=none;points=[];labelBackgroundColor=none;rounded=0;strokeColor=none;html=1;whiteSpace=wrap;" parent="1" vertex="1">
          <mxGeometry x="520" y="340" width="50" height="40" as="geometry" />
        </mxCell>
        <mxCell id="V1fP8Ok8U7q3qZ9ysbPQ-186" style="vsdxID=6;fillColor=#000000;gradientColor=none;shape=stencil(pZLNDsIgEISfZq/NAomp51rfo0mpEBEain9vL7gxWK0m4m0Y5lvYZEA0k+pGCRyn4N1ennUfFIgNcK6tkl6HqEC0IJrBebnz7mh7Oo9dSiZ1cKc04UJcvaoYSxTHKzlMVPX67mwJMNp+BbKzCOR5xcDPX3oD5kszxFkcP88uDD5eWF4Q/wiXRqPIHRi0MVSh5/vXzkSL+ibaGw==);strokeColor=none;spacingTop=-3;spacingBottom=-3;spacingLeft=-3;spacingRight=-3;points=[];labelBackgroundColor=none;rounded=0;html=1;whiteSpace=wrap;" parent="V1fP8Ok8U7q3qZ9ysbPQ-185" vertex="1">
          <mxGeometry x="26" y="10.526315789473683" width="14" height="14.736842105263158" as="geometry" />
        </mxCell>
        <mxCell id="V1fP8Ok8U7q3qZ9ysbPQ-187" style="vsdxID=7;fillColor=#000000;gradientColor=none;shape=stencil(UzV2Ls5ILEhVNTIoLinKz04tz0wpyVA1dlE1MsrMy0gtyiwBslSNXVWNndPyi1LTi/JL81Ig/IJEkEoQKze/DGRCBUSfoYEBSI+RQSUq3w2iOCczD0kx2UotjfRMTXArtjTVMzClTIO5nokZsa4hRS0eL6IHHQlK0YIOyEDET1pmTg4kepHl0eMTKARJC8auAA==);strokeColor=none;spacingTop=-3;spacingBottom=-3;spacingLeft=-3;spacingRight=-3;points=[];labelBackgroundColor=none;rounded=0;html=1;whiteSpace=wrap;" parent="V1fP8Ok8U7q3qZ9ysbPQ-185" vertex="1">
          <mxGeometry x="8" y="4.2105263157894735" width="42" height="29.473684210526315" as="geometry" />
        </mxCell>
        <mxCell id="V1fP8Ok8U7q3qZ9ysbPQ-188" style="vsdxID=8;fillColor=#000000;gradientColor=none;shape=stencil(pZLdDsIgDIWfhluC7Rx6Ped7LBkTIsLC8O/tBYnREWeyeXdavtOW5BCsBtn0ggAbvLNHcVWtlwR3BEAZKZzyQRGsCVaddeLg7Nm0qe6bSEZ1spc44ZZ8Jae8iC5g99RZU755NvaJ18r85LcFjeWUAYFC+Z9h7kU5P/7xirERzaZHLwRfG76i+fpZ8FI0iHcAOqV1ys/nex6Y0Ephw/oB);strokeColor=none;spacingTop=-3;spacingBottom=-3;spacingLeft=-3;spacingRight=-3;points=[];labelBackgroundColor=none;rounded=0;html=1;whiteSpace=wrap;" parent="V1fP8Ok8U7q3qZ9ysbPQ-185" vertex="1">
          <mxGeometry width="6" height="37.89473684210526" as="geometry" />
        </mxCell>
        <mxCell id="V1fP8Ok8U7q3qZ9ysbPQ-189" style="vsdxID=9;fillColor=#000000;gradientColor=none;shape=stencil(nZRLEoIwDIZP0y0TGpVx7eMejqJ0RHAqKNxeMDDERiq6a8OX5s+DKFzdkt01Vhpuhc3P8cMcikThWmltsiS2pmhOCjcKV8fcxiebl9mB7tddS7anS35vX6jIbw6ti4aarloHEb4sW6L3pSU8JGAxD5Zh5xK6PlBpMkVRoKOO6kw4C2DZUSgpfJMzEpw7SD19cC5R6qnQSVyIGQnOEqilnj44K0Yt9fTBOfUx89RkrEkcn1Inzkv1lexILdWP1UlMiHeefpUJ7xLhqzzwVdENCOqP9oUA/or0wPShHZ50Y3gGdmAm5TrgP/2mX3L1DKmv89PJ5jCsqqNJU9p0/Lu72hoTrUXcPAE=);strokeColor=none;spacingTop=-3;spacingBottom=-3;spacingLeft=-3;spacingRight=-3;points=[];labelBackgroundColor=none;rounded=0;html=1;whiteSpace=wrap;" parent="V1fP8Ok8U7q3qZ9ysbPQ-185" vertex="1">
          <mxGeometry x="10" y="12.631578947368421" width="8" height="8.421052631578947" as="geometry" />
        </mxCell>
        <mxCell id="V1fP8Ok8U7q3qZ9ysbPQ-190" style="vsdxID=10;fillColor=#000000;gradientColor=none;shape=stencil(nZBLDoAgDERP0z3SIyjew0SURgSD+Lu9kMZoXLhwN9O+tukAlrNpJg1SzDH4QW/URgNYgZTkjA4UkwJUgGXng+6DX1zLfmoymdXo17xh5zmRJ6Q42BWCfc2oJfdAr+Yv+AP9Cb7OJ3H/2JG1HNGz/84klThPVCc=);strokeColor=none;spacingTop=-3;spacingBottom=-3;spacingLeft=-3;spacingRight=-3;points=[];labelBackgroundColor=none;rounded=0;html=1;whiteSpace=wrap;" parent="V1fP8Ok8U7q3qZ9ysbPQ-185" vertex="1">
          <mxGeometry x="18" y="16.842105263157894" width="6" height="2.1052631578947367" as="geometry" />
        </mxCell>
        <mxCell id="V1fP8Ok8U7q3qZ9ysbPQ-191" style="vsdxID=11;fillColor=#000000;gradientColor=none;shape=stencil(nZBLDoAgDERP0z3SIyjew0SURgSD+Lu9kMZoXLhwN9O+tukAlrNpJg1SzDH4QW/URgNYgZTkjA4UkwJUgGXng+6DX1zLfmoymdXo17xh5zmRJ6Q42BWCfc2oJfdAr+Yv+AP9Cb7OJ3H/2JG1HNGz/84klThPVCc=);strokeColor=none;spacingTop=-3;spacingBottom=-3;spacingLeft=-3;spacingRight=-3;points=[];labelBackgroundColor=none;rounded=0;html=1;whiteSpace=wrap;" parent="V1fP8Ok8U7q3qZ9ysbPQ-185" vertex="1">
          <mxGeometry x="26" y="33.68421052631579" height="4.2105263157894735" as="geometry" />
        </mxCell>
        <mxCell id="V1fP8Ok8U7q3qZ9ysbPQ-192" style="vsdxID=12;fillColor=#000000;gradientColor=none;shape=stencil(nZBLDoAgDERP0z3SIyjew0SURgSD+Lu9kMZoXLhwN9O+tukAlrNpJg1SzDH4QW/URgNYgZTkjA4UkwJUgGXng+6DX1zLfmoymdXo17xh5zmRJ6Q42BWCfc2oJfdAr+Yv+AP9Cb7OJ3H/2JG1HNGz/84klThPVCc=);strokeColor=none;spacingTop=-3;spacingBottom=-3;spacingLeft=-3;spacingRight=-3;points=[];labelBackgroundColor=none;rounded=0;html=1;whiteSpace=wrap;" parent="V1fP8Ok8U7q3qZ9ysbPQ-185" vertex="1">
          <mxGeometry x="30" y="33.68421052631579" height="4.2105263157894735" as="geometry" />
        </mxCell>
        <mxCell id="V1fP8Ok8U7q3qZ9ysbPQ-193" style="vsdxID=13;fillColor=#000000;gradientColor=none;shape=stencil(nZBLDoAgDERP0z3SIyjew0SURgSD+Lu9kMZoXLhwN9O+tukAlrNpJg1SzDH4QW/URgNYgZTkjA4UkwJUgGXng+6DX1zLfmoymdXo17xh5zmRJ6Q42BWCfc2oJfdAr+Yv+AP9Cb7OJ3H/2JG1HNGz/84klThPVCc=);strokeColor=none;spacingTop=-3;spacingBottom=-3;spacingLeft=-3;spacingRight=-3;points=[];labelBackgroundColor=none;rounded=0;html=1;whiteSpace=wrap;" parent="V1fP8Ok8U7q3qZ9ysbPQ-185" vertex="1">
          <mxGeometry x="34" y="33.68421052631579" height="4.2105263157894735" as="geometry" />
        </mxCell>
        <mxCell id="V1fP8Ok8U7q3qZ9ysbPQ-194" style="vsdxID=14;fillColor=#000000;gradientColor=none;shape=stencil(nZBLDoAgDERP0z3SIyjew0SURgSD+Lu9kMZoXLhwN9O+tukAlrNpJg1SzDH4QW/URgNYgZTkjA4UkwJUgGXng+6DX1zLfmoymdXo17xh5zmRJ6Q42BWCfc2oJfdAr+Yv+AP9Cb7OJ3H/2JG1HNGz/84klThPVCc=);strokeColor=none;spacingTop=-3;spacingBottom=-3;spacingLeft=-3;spacingRight=-3;points=[];labelBackgroundColor=none;rounded=0;html=1;whiteSpace=wrap;" parent="V1fP8Ok8U7q3qZ9ysbPQ-185" vertex="1">
          <mxGeometry x="38" y="33.68421052631579" height="4.2105263157894735" as="geometry" />
        </mxCell>
        <mxCell id="V1fP8Ok8U7q3qZ9ysbPQ-195" style="vsdxID=15;fillColor=#000000;gradientColor=none;shape=stencil(UzV2Ls5ILEhVNTIoLinKz04tz0wpyVA1dlE1MsrMy0gtyiwBslSNXVWNndPyi1LTi/JL81Ig/IJEkEoQKze/DGRCBUSfoYEBSI+RQSUq3w2iOCczD0kx2UrxKDTTMzUhW62ZpZ6RMW71lsZ6JmaUacDjGvSgI0EpWtABGYj4ScvMyYFEL7I8enwChSBpwdgVAA==);strokeColor=none;spacingTop=-3;spacingBottom=-3;spacingLeft=-3;spacingRight=-3;points=[];labelBackgroundColor=none;rounded=0;html=1;whiteSpace=wrap;" parent="V1fP8Ok8U7q3qZ9ysbPQ-185" vertex="1">
          <mxGeometry x="20" y="33.68421052631579" width="22" height="4.2105263157894735" as="geometry" />
        </mxCell>
        <mxCell id="V1fP8Ok8U7q3qZ9ysbPQ-196" value="" style="edgeStyle=orthogonalEdgeStyle;rounded=0;orthogonalLoop=1;jettySize=auto;html=1;" parent="1" source="V1fP8Ok8U7q3qZ9ysbPQ-197" target="V1fP8Ok8U7q3qZ9ysbPQ-212" edge="1">
          <mxGeometry relative="1" as="geometry" />
        </mxCell>
        <mxCell id="Qs-pVyy2RuvGPjBRmzeA-15" value="" style="edgeStyle=orthogonalEdgeStyle;rounded=0;orthogonalLoop=1;jettySize=auto;html=1;" edge="1" parent="1" source="V1fP8Ok8U7q3qZ9ysbPQ-197" target="Qs-pVyy2RuvGPjBRmzeA-14">
          <mxGeometry relative="1" as="geometry" />
        </mxCell>
        <mxCell id="V1fP8Ok8U7q3qZ9ysbPQ-197" style="vsdxID=5;fillColor=none;gradientColor=none;points=[];labelBackgroundColor=none;rounded=0;strokeColor=none;html=1;whiteSpace=wrap;" parent="1" vertex="1">
          <mxGeometry x="620" y="340" width="50" height="40" as="geometry" />
        </mxCell>
        <mxCell id="V1fP8Ok8U7q3qZ9ysbPQ-198" style="vsdxID=6;fillColor=#000000;gradientColor=none;shape=stencil(pZLNDsIgEISfZq/NAomp51rfo0mpEBEain9vL7gxWK0m4m0Y5lvYZEA0k+pGCRyn4N1ennUfFIgNcK6tkl6HqEC0IJrBebnz7mh7Oo9dSiZ1cKc04UJcvaoYSxTHKzlMVPX67mwJMNp+BbKzCOR5xcDPX3oD5kszxFkcP88uDD5eWF4Q/wiXRqPIHRi0MVSh5/vXzkSL+ibaGw==);strokeColor=none;spacingTop=-3;spacingBottom=-3;spacingLeft=-3;spacingRight=-3;points=[];labelBackgroundColor=none;rounded=0;html=1;whiteSpace=wrap;" parent="V1fP8Ok8U7q3qZ9ysbPQ-197" vertex="1">
          <mxGeometry x="26" y="10.526315789473683" width="14" height="14.736842105263158" as="geometry" />
        </mxCell>
        <mxCell id="V1fP8Ok8U7q3qZ9ysbPQ-199" style="vsdxID=7;fillColor=#000000;gradientColor=none;shape=stencil(UzV2Ls5ILEhVNTIoLinKz04tz0wpyVA1dlE1MsrMy0gtyiwBslSNXVWNndPyi1LTi/JL81Ig/IJEkEoQKze/DGRCBUSfoYEBSI+RQSUq3w2iOCczD0kx2UotjfRMTXArtjTVMzClTIO5nokZsa4hRS0eL6IHHQlK0YIOyEDET1pmTg4kepHl0eMTKARJC8auAA==);strokeColor=none;spacingTop=-3;spacingBottom=-3;spacingLeft=-3;spacingRight=-3;points=[];labelBackgroundColor=none;rounded=0;html=1;whiteSpace=wrap;" parent="V1fP8Ok8U7q3qZ9ysbPQ-197" vertex="1">
          <mxGeometry x="8" y="4.2105263157894735" width="42" height="29.473684210526315" as="geometry" />
        </mxCell>
        <mxCell id="V1fP8Ok8U7q3qZ9ysbPQ-200" style="vsdxID=8;fillColor=#000000;gradientColor=none;shape=stencil(pZLdDsIgDIWfhluC7Rx6Ped7LBkTIsLC8O/tBYnREWeyeXdavtOW5BCsBtn0ggAbvLNHcVWtlwR3BEAZKZzyQRGsCVaddeLg7Nm0qe6bSEZ1spc44ZZ8Jae8iC5g99RZU755NvaJ18r85LcFjeWUAYFC+Z9h7kU5P/7xirERzaZHLwRfG76i+fpZ8FI0iHcAOqV1ys/nex6Y0Ephw/oB);strokeColor=none;spacingTop=-3;spacingBottom=-3;spacingLeft=-3;spacingRight=-3;points=[];labelBackgroundColor=none;rounded=0;html=1;whiteSpace=wrap;" parent="V1fP8Ok8U7q3qZ9ysbPQ-197" vertex="1">
          <mxGeometry width="6" height="37.89473684210526" as="geometry" />
        </mxCell>
        <mxCell id="V1fP8Ok8U7q3qZ9ysbPQ-201" style="vsdxID=9;fillColor=#000000;gradientColor=none;shape=stencil(nZRLEoIwDIZP0y0TGpVx7eMejqJ0RHAqKNxeMDDERiq6a8OX5s+DKFzdkt01Vhpuhc3P8cMcikThWmltsiS2pmhOCjcKV8fcxiebl9mB7tddS7anS35vX6jIbw6ti4aarloHEb4sW6L3pSU8JGAxD5Zh5xK6PlBpMkVRoKOO6kw4C2DZUSgpfJMzEpw7SD19cC5R6qnQSVyIGQnOEqilnj44K0Yt9fTBOfUx89RkrEkcn1Inzkv1lexILdWP1UlMiHeefpUJ7xLhqzzwVdENCOqP9oUA/or0wPShHZ50Y3gGdmAm5TrgP/2mX3L1DKmv89PJ5jCsqqNJU9p0/Lu72hoTrUXcPAE=);strokeColor=none;spacingTop=-3;spacingBottom=-3;spacingLeft=-3;spacingRight=-3;points=[];labelBackgroundColor=none;rounded=0;html=1;whiteSpace=wrap;" parent="V1fP8Ok8U7q3qZ9ysbPQ-197" vertex="1">
          <mxGeometry x="10" y="12.631578947368421" width="8" height="8.421052631578947" as="geometry" />
        </mxCell>
        <mxCell id="V1fP8Ok8U7q3qZ9ysbPQ-202" style="vsdxID=10;fillColor=#000000;gradientColor=none;shape=stencil(nZBLDoAgDERP0z3SIyjew0SURgSD+Lu9kMZoXLhwN9O+tukAlrNpJg1SzDH4QW/URgNYgZTkjA4UkwJUgGXng+6DX1zLfmoymdXo17xh5zmRJ6Q42BWCfc2oJfdAr+Yv+AP9Cb7OJ3H/2JG1HNGz/84klThPVCc=);strokeColor=none;spacingTop=-3;spacingBottom=-3;spacingLeft=-3;spacingRight=-3;points=[];labelBackgroundColor=none;rounded=0;html=1;whiteSpace=wrap;" parent="V1fP8Ok8U7q3qZ9ysbPQ-197" vertex="1">
          <mxGeometry x="18" y="16.842105263157894" width="6" height="2.1052631578947367" as="geometry" />
        </mxCell>
        <mxCell id="V1fP8Ok8U7q3qZ9ysbPQ-203" style="vsdxID=11;fillColor=#000000;gradientColor=none;shape=stencil(nZBLDoAgDERP0z3SIyjew0SURgSD+Lu9kMZoXLhwN9O+tukAlrNpJg1SzDH4QW/URgNYgZTkjA4UkwJUgGXng+6DX1zLfmoymdXo17xh5zmRJ6Q42BWCfc2oJfdAr+Yv+AP9Cb7OJ3H/2JG1HNGz/84klThPVCc=);strokeColor=none;spacingTop=-3;spacingBottom=-3;spacingLeft=-3;spacingRight=-3;points=[];labelBackgroundColor=none;rounded=0;html=1;whiteSpace=wrap;" parent="V1fP8Ok8U7q3qZ9ysbPQ-197" vertex="1">
          <mxGeometry x="26" y="33.68421052631579" height="4.2105263157894735" as="geometry" />
        </mxCell>
        <mxCell id="V1fP8Ok8U7q3qZ9ysbPQ-204" style="vsdxID=12;fillColor=#000000;gradientColor=none;shape=stencil(nZBLDoAgDERP0z3SIyjew0SURgSD+Lu9kMZoXLhwN9O+tukAlrNpJg1SzDH4QW/URgNYgZTkjA4UkwJUgGXng+6DX1zLfmoymdXo17xh5zmRJ6Q42BWCfc2oJfdAr+Yv+AP9Cb7OJ3H/2JG1HNGz/84klThPVCc=);strokeColor=none;spacingTop=-3;spacingBottom=-3;spacingLeft=-3;spacingRight=-3;points=[];labelBackgroundColor=none;rounded=0;html=1;whiteSpace=wrap;" parent="V1fP8Ok8U7q3qZ9ysbPQ-197" vertex="1">
          <mxGeometry x="30" y="33.68421052631579" height="4.2105263157894735" as="geometry" />
        </mxCell>
        <mxCell id="V1fP8Ok8U7q3qZ9ysbPQ-205" style="vsdxID=13;fillColor=#000000;gradientColor=none;shape=stencil(nZBLDoAgDERP0z3SIyjew0SURgSD+Lu9kMZoXLhwN9O+tukAlrNpJg1SzDH4QW/URgNYgZTkjA4UkwJUgGXng+6DX1zLfmoymdXo17xh5zmRJ6Q42BWCfc2oJfdAr+Yv+AP9Cb7OJ3H/2JG1HNGz/84klThPVCc=);strokeColor=none;spacingTop=-3;spacingBottom=-3;spacingLeft=-3;spacingRight=-3;points=[];labelBackgroundColor=none;rounded=0;html=1;whiteSpace=wrap;" parent="V1fP8Ok8U7q3qZ9ysbPQ-197" vertex="1">
          <mxGeometry x="34" y="33.68421052631579" height="4.2105263157894735" as="geometry" />
        </mxCell>
        <mxCell id="V1fP8Ok8U7q3qZ9ysbPQ-206" style="vsdxID=14;fillColor=#000000;gradientColor=none;shape=stencil(nZBLDoAgDERP0z3SIyjew0SURgSD+Lu9kMZoXLhwN9O+tukAlrNpJg1SzDH4QW/URgNYgZTkjA4UkwJUgGXng+6DX1zLfmoymdXo17xh5zmRJ6Q42BWCfc2oJfdAr+Yv+AP9Cb7OJ3H/2JG1HNGz/84klThPVCc=);strokeColor=none;spacingTop=-3;spacingBottom=-3;spacingLeft=-3;spacingRight=-3;points=[];labelBackgroundColor=none;rounded=0;html=1;whiteSpace=wrap;" parent="V1fP8Ok8U7q3qZ9ysbPQ-197" vertex="1">
          <mxGeometry x="38" y="33.68421052631579" height="4.2105263157894735" as="geometry" />
        </mxCell>
        <mxCell id="V1fP8Ok8U7q3qZ9ysbPQ-207" style="vsdxID=15;fillColor=#000000;gradientColor=none;shape=stencil(UzV2Ls5ILEhVNTIoLinKz04tz0wpyVA1dlE1MsrMy0gtyiwBslSNXVWNndPyi1LTi/JL81Ig/IJEkEoQKze/DGRCBUSfoYEBSI+RQSUq3w2iOCczD0kx2UrxKDTTMzUhW62ZpZ6RMW71lsZ6JmaUacDjGvSgI0EpWtABGYj4ScvMyYFEL7I8enwChSBpwdgVAA==);strokeColor=none;spacingTop=-3;spacingBottom=-3;spacingLeft=-3;spacingRight=-3;points=[];labelBackgroundColor=none;rounded=0;html=1;whiteSpace=wrap;" parent="V1fP8Ok8U7q3qZ9ysbPQ-197" vertex="1">
          <mxGeometry x="20" y="33.68421052631579" width="22" height="4.2105263157894735" as="geometry" />
        </mxCell>
        <mxCell id="V1fP8Ok8U7q3qZ9ysbPQ-208" style="vsdxID=5;fillColor=none;gradientColor=none;points=[];labelBackgroundColor=none;rounded=0;strokeColor=none;html=1;whiteSpace=wrap;" parent="1" vertex="1">
          <mxGeometry x="750" y="230" width="110" height="40" as="geometry" />
        </mxCell>
        <mxCell id="V1fP8Ok8U7q3qZ9ysbPQ-209" style="vsdxID=6;fillColor=#000000;gradientColor=none;shape=stencil(UzV2Ls5ILEhVNTIoLinKz04tz0wpyVA1dlE1MsrMy0gtyiwBslSNXVWNndPyi1LTi/JL81Ig/IJEkEoQKze/DGRCBUSfpZmeGUiTkUElRMBcz8gULOAGUZ6TmYdPuaWRnjke9cZ6JpQoJ9Ex6MpRvWpoYICi2gC3yWQqhNmAVSm69SQppoNSIAORSNIyc3IgaQxZHj1RAYUgCdLYFQA=);strokeColor=none;spacingTop=-3;spacingBottom=-3;spacingLeft=-3;spacingRight=-3;points=[];labelBackgroundColor=none;rounded=0;html=1;whiteSpace=wrap;" parent="V1fP8Ok8U7q3qZ9ysbPQ-208" vertex="1">
          <mxGeometry width="110.00000000000001" height="40" as="geometry" />
        </mxCell>
        <mxCell id="V1fP8Ok8U7q3qZ9ysbPQ-210" style="vsdxID=7;fillColor=#000000;gradientColor=none;shape=stencil(pZXdbsIwDIWfJrdWbOev1wzeA4lCI7oWlbLB29MSIaZtbUR959jni06k6Fjx6lxtT6Uife679lh+x11fKf5QRLGpyi72Q6V4rXi1b7vy0LWXZpfOp+2oHKvP9mu84Zo47yDgSJG+pQ5acPzobBJQx2YW0NNiYsBiuThjRS8XFxYYp8VowBQygBHITgPswQUZkHmwI2CSARlLwYJFGRAMcJj5bAHIyQCPEGYAx+C9DMhYsg4syYCMJUOgWQZkLLEDEgIZS4TgjQwo6Jkf/wMerBBAPRNfz+Ey8buh+wcYilfG72NdpxXxc/57JwyttE94fQc=);strokeColor=none;spacingTop=-3;spacingBottom=-3;spacingLeft=-3;spacingRight=-3;points=[];labelBackgroundColor=none;rounded=0;html=1;whiteSpace=wrap;" parent="V1fP8Ok8U7q3qZ9ysbPQ-208" vertex="1">
          <mxGeometry x="10.645555555555557" y="8.57" width="26.02111111111111" height="17.14" as="geometry" />
        </mxCell>
        <mxCell id="V1fP8Ok8U7q3qZ9ysbPQ-211" style="vsdxID=8;fillColor=#000000;gradientColor=none;shape=stencil(pdXbboMwDAbgp8mtFds5Xnfde1QqHdEYVJSd3n6waGrVikTDd8H5P2QkZCveXdrDuVGkL9M4vDaf6Ti1ip8UUerbZkzTfFK8V7w7DWPzMg7v/TE/nw9Lcjm9DR/LG76y8w4CLor0d66gBce/lecMutQXgV4PE4I328OVVvT2cLTAuB5GAybKACOQXQfsgFgGKh/sCJhkoNJSsGBRBoIBDoWfLQA5GfAIoQAcg/cyUGnJOrAkA5WWDIFmGai0xAZ8kIFKS6SBogxEAowF4MEaGUBdGF9/l9vC/x26D2A+XGf8KXVdXhG39/c7YS7lfcL7Hw==);strokeColor=none;spacingTop=-3;spacingBottom=-3;spacingLeft=-3;spacingRight=-3;points=[];labelBackgroundColor=none;rounded=0;html=1;whiteSpace=wrap;" parent="V1fP8Ok8U7q3qZ9ysbPQ-208" vertex="1">
          <mxGeometry x="39.032258064516135" y="8.571428571428571" width="24.83870967741936" height="17.142857142857142" as="geometry" />
        </mxCell>
        <mxCell id="V1fP8Ok8U7q3qZ9ysbPQ-212" style="vsdxID=9;fillColor=#000000;gradientColor=none;shape=stencil(pZXdbsIwDIWfJrdWbOev1wzeA4lCI7oWlbLB29MSIaZtbUR959jni06k6Fjx6lxtT6Uife679lh+x11fKf5QRLGpyi72Q6V4rXi1b7vy0LWXZpfOp+2oHKvP9mu84Zo47yDgSJG+pQ5acPzobBJQx2YW0NNiYsBiuThjRS8XFxYYp8VowBQygBHITgPswQUZkHmwI2CSARlLwYJFGRAMcJj5bAHIyQCPEGYAx+C9DMhYsg4syYCMJUOgWQZkLLEDEgIZS4TgjQwo6Jkf/wMerBBAPRNfz+Ey8buh+wcYilfG72NdpxXxc/57JwyttE94fQc=);strokeColor=none;spacingTop=-3;spacingBottom=-3;spacingLeft=-3;spacingRight=-3;points=[];labelBackgroundColor=none;rounded=0;html=1;whiteSpace=wrap;" parent="V1fP8Ok8U7q3qZ9ysbPQ-208" vertex="1">
          <mxGeometry x="70.96774193548387" y="8.571428571428571" width="24.83870967741936" height="17.142857142857142" as="geometry" />
        </mxCell>
        <mxCell id="V1fP8Ok8U7q3qZ9ysbPQ-416" value="ESXi Server1" style="text;html=1;align=center;verticalAlign=middle;whiteSpace=wrap;rounded=0;fontSize=20;" parent="1" vertex="1">
          <mxGeometry x="150" y="240" width="130" height="50" as="geometry" />
        </mxCell>
        <mxCell id="V1fP8Ok8U7q3qZ9ysbPQ-420" value="" style="rounded=0;whiteSpace=wrap;html=1;movable=1;resizable=1;rotatable=1;deletable=1;editable=1;locked=0;connectable=1;opacity=0;dashed=1;" parent="1" vertex="1">
          <mxGeometry x="810" y="500" width="170" height="80" as="geometry" />
        </mxCell>
        <mxCell id="Qs-pVyy2RuvGPjBRmzeA-8" value="" style="shape=waypoint;sketch=0;size=6;pointerEvents=1;points=[];fillColor=none;resizable=0;rotatable=0;perimeter=centerPerimeter;snapToPoint=1;" vertex="1" parent="1">
          <mxGeometry x="425" y="670" width="20" height="20" as="geometry" />
        </mxCell>
        <mxCell id="Qs-pVyy2RuvGPjBRmzeA-10" value="" style="shape=waypoint;sketch=0;size=6;pointerEvents=1;points=[];fillColor=none;resizable=0;rotatable=0;perimeter=centerPerimeter;snapToPoint=1;" vertex="1" parent="1">
          <mxGeometry x="325" y="670" width="20" height="20" as="geometry" />
        </mxCell>
        <mxCell id="Qs-pVyy2RuvGPjBRmzeA-12" value="" style="shape=waypoint;sketch=0;size=6;pointerEvents=1;points=[];fillColor=none;resizable=0;rotatable=0;perimeter=centerPerimeter;snapToPoint=1;" vertex="1" parent="1">
          <mxGeometry x="535" y="670" width="20" height="20" as="geometry" />
        </mxCell>
        <mxCell id="Qs-pVyy2RuvGPjBRmzeA-14" value="" style="shape=waypoint;sketch=0;size=6;pointerEvents=1;points=[];fillColor=none;resizable=0;rotatable=0;perimeter=centerPerimeter;snapToPoint=1;" vertex="1" parent="1">
          <mxGeometry x="635" y="670" width="20" height="20" as="geometry" />
        </mxCell>
        <mxCell id="Qs-pVyy2RuvGPjBRmzeA-16" value="port1" style="text;html=1;align=center;verticalAlign=middle;whiteSpace=wrap;rounded=0;fontSize=20;" vertex="1" parent="1">
          <mxGeometry x="235.20000000000005" y="620" width="60" height="40" as="geometry" />
        </mxCell>
        <mxCell id="Qs-pVyy2RuvGPjBRmzeA-17" value="port2" style="text;html=1;align=center;verticalAlign=middle;whiteSpace=wrap;rounded=0;fontSize=20;" vertex="1" parent="1">
          <mxGeometry x="365" y="620" width="60" height="40" as="geometry" />
        </mxCell>
        <mxCell id="Qs-pVyy2RuvGPjBRmzeA-18" value="port3" style="text;html=1;align=center;verticalAlign=middle;whiteSpace=wrap;rounded=0;fontSize=20;" vertex="1" parent="1">
          <mxGeometry x="490" y="620" width="60" height="40" as="geometry" />
        </mxCell>
        <mxCell id="Qs-pVyy2RuvGPjBRmzeA-20" value="port4" style="text;html=1;align=center;verticalAlign=middle;whiteSpace=wrap;rounded=0;fontSize=20;" vertex="1" parent="1">
          <mxGeometry x="670" y="620" width="60" height="40" as="geometry" />
        </mxCell>
        <mxCell id="Qs-pVyy2RuvGPjBRmzeA-21" value="" style="pointerEvents=1;shadow=0;dashed=0;html=1;strokeColor=none;fillColor=#4495D1;labelPosition=center;verticalLabelPosition=bottom;verticalAlign=top;align=center;outlineConnect=0;shape=mxgraph.veeam.server;" vertex="1" parent="1">
          <mxGeometry x="1090" y="230" width="450" height="49.4" as="geometry" />
        </mxCell>
        <mxCell id="Qs-pVyy2RuvGPjBRmzeA-22" value="" style="edgeStyle=orthogonalEdgeStyle;rounded=0;orthogonalLoop=1;jettySize=auto;html=1;" edge="1" parent="1" source="Qs-pVyy2RuvGPjBRmzeA-23" target="Qs-pVyy2RuvGPjBRmzeA-48">
          <mxGeometry relative="1" as="geometry" />
        </mxCell>
        <mxCell id="Qs-pVyy2RuvGPjBRmzeA-89" value="" style="edgeStyle=orthogonalEdgeStyle;rounded=0;orthogonalLoop=1;jettySize=auto;html=1;" edge="1" parent="1" source="Qs-pVyy2RuvGPjBRmzeA-23" target="Qs-pVyy2RuvGPjBRmzeA-88">
          <mxGeometry relative="1" as="geometry" />
        </mxCell>
        <mxCell id="Qs-pVyy2RuvGPjBRmzeA-23" style="vsdxID=5;fillColor=none;gradientColor=none;points=[];labelBackgroundColor=none;rounded=0;strokeColor=none;html=1;whiteSpace=wrap;" vertex="1" parent="1">
          <mxGeometry x="1100" y="330" width="50" height="40" as="geometry" />
        </mxCell>
        <mxCell id="Qs-pVyy2RuvGPjBRmzeA-24" style="vsdxID=6;fillColor=#000000;gradientColor=none;shape=stencil(pZLNDsIgEISfZq/NAomp51rfo0mpEBEain9vL7gxWK0m4m0Y5lvYZEA0k+pGCRyn4N1ennUfFIgNcK6tkl6HqEC0IJrBebnz7mh7Oo9dSiZ1cKc04UJcvaoYSxTHKzlMVPX67mwJMNp+BbKzCOR5xcDPX3oD5kszxFkcP88uDD5eWF4Q/wiXRqPIHRi0MVSh5/vXzkSL+ibaGw==);strokeColor=none;spacingTop=-3;spacingBottom=-3;spacingLeft=-3;spacingRight=-3;points=[];labelBackgroundColor=none;rounded=0;html=1;whiteSpace=wrap;" vertex="1" parent="Qs-pVyy2RuvGPjBRmzeA-23">
          <mxGeometry x="26" y="10.526315789473683" width="14" height="14.736842105263158" as="geometry" />
        </mxCell>
        <mxCell id="Qs-pVyy2RuvGPjBRmzeA-25" style="vsdxID=7;fillColor=#000000;gradientColor=none;shape=stencil(UzV2Ls5ILEhVNTIoLinKz04tz0wpyVA1dlE1MsrMy0gtyiwBslSNXVWNndPyi1LTi/JL81Ig/IJEkEoQKze/DGRCBUSfoYEBSI+RQSUq3w2iOCczD0kx2UotjfRMTXArtjTVMzClTIO5nokZsa4hRS0eL6IHHQlK0YIOyEDET1pmTg4kepHl0eMTKARJC8auAA==);strokeColor=none;spacingTop=-3;spacingBottom=-3;spacingLeft=-3;spacingRight=-3;points=[];labelBackgroundColor=none;rounded=0;html=1;whiteSpace=wrap;" vertex="1" parent="Qs-pVyy2RuvGPjBRmzeA-23">
          <mxGeometry x="8" y="4.2105263157894735" width="42" height="29.473684210526315" as="geometry" />
        </mxCell>
        <mxCell id="Qs-pVyy2RuvGPjBRmzeA-26" style="vsdxID=8;fillColor=#000000;gradientColor=none;shape=stencil(pZLdDsIgDIWfhluC7Rx6Ped7LBkTIsLC8O/tBYnREWeyeXdavtOW5BCsBtn0ggAbvLNHcVWtlwR3BEAZKZzyQRGsCVaddeLg7Nm0qe6bSEZ1spc44ZZ8Jae8iC5g99RZU755NvaJ18r85LcFjeWUAYFC+Z9h7kU5P/7xirERzaZHLwRfG76i+fpZ8FI0iHcAOqV1ys/nex6Y0Ephw/oB);strokeColor=none;spacingTop=-3;spacingBottom=-3;spacingLeft=-3;spacingRight=-3;points=[];labelBackgroundColor=none;rounded=0;html=1;whiteSpace=wrap;" vertex="1" parent="Qs-pVyy2RuvGPjBRmzeA-23">
          <mxGeometry width="6" height="37.89473684210526" as="geometry" />
        </mxCell>
        <mxCell id="Qs-pVyy2RuvGPjBRmzeA-27" style="vsdxID=9;fillColor=#000000;gradientColor=none;shape=stencil(nZRLEoIwDIZP0y0TGpVx7eMejqJ0RHAqKNxeMDDERiq6a8OX5s+DKFzdkt01Vhpuhc3P8cMcikThWmltsiS2pmhOCjcKV8fcxiebl9mB7tddS7anS35vX6jIbw6ti4aarloHEb4sW6L3pSU8JGAxD5Zh5xK6PlBpMkVRoKOO6kw4C2DZUSgpfJMzEpw7SD19cC5R6qnQSVyIGQnOEqilnj44K0Yt9fTBOfUx89RkrEkcn1Inzkv1lexILdWP1UlMiHeefpUJ7xLhqzzwVdENCOqP9oUA/or0wPShHZ50Y3gGdmAm5TrgP/2mX3L1DKmv89PJ5jCsqqNJU9p0/Lu72hoTrUXcPAE=);strokeColor=none;spacingTop=-3;spacingBottom=-3;spacingLeft=-3;spacingRight=-3;points=[];labelBackgroundColor=none;rounded=0;html=1;whiteSpace=wrap;" vertex="1" parent="Qs-pVyy2RuvGPjBRmzeA-23">
          <mxGeometry x="10" y="12.631578947368421" width="8" height="8.421052631578947" as="geometry" />
        </mxCell>
        <mxCell id="Qs-pVyy2RuvGPjBRmzeA-28" style="vsdxID=10;fillColor=#000000;gradientColor=none;shape=stencil(nZBLDoAgDERP0z3SIyjew0SURgSD+Lu9kMZoXLhwN9O+tukAlrNpJg1SzDH4QW/URgNYgZTkjA4UkwJUgGXng+6DX1zLfmoymdXo17xh5zmRJ6Q42BWCfc2oJfdAr+Yv+AP9Cb7OJ3H/2JG1HNGz/84klThPVCc=);strokeColor=none;spacingTop=-3;spacingBottom=-3;spacingLeft=-3;spacingRight=-3;points=[];labelBackgroundColor=none;rounded=0;html=1;whiteSpace=wrap;" vertex="1" parent="Qs-pVyy2RuvGPjBRmzeA-23">
          <mxGeometry x="18" y="16.842105263157894" width="6" height="2.1052631578947367" as="geometry" />
        </mxCell>
        <mxCell id="Qs-pVyy2RuvGPjBRmzeA-29" style="vsdxID=11;fillColor=#000000;gradientColor=none;shape=stencil(nZBLDoAgDERP0z3SIyjew0SURgSD+Lu9kMZoXLhwN9O+tukAlrNpJg1SzDH4QW/URgNYgZTkjA4UkwJUgGXng+6DX1zLfmoymdXo17xh5zmRJ6Q42BWCfc2oJfdAr+Yv+AP9Cb7OJ3H/2JG1HNGz/84klThPVCc=);strokeColor=none;spacingTop=-3;spacingBottom=-3;spacingLeft=-3;spacingRight=-3;points=[];labelBackgroundColor=none;rounded=0;html=1;whiteSpace=wrap;" vertex="1" parent="Qs-pVyy2RuvGPjBRmzeA-23">
          <mxGeometry x="26" y="33.68421052631579" height="4.2105263157894735" as="geometry" />
        </mxCell>
        <mxCell id="Qs-pVyy2RuvGPjBRmzeA-30" style="vsdxID=12;fillColor=#000000;gradientColor=none;shape=stencil(nZBLDoAgDERP0z3SIyjew0SURgSD+Lu9kMZoXLhwN9O+tukAlrNpJg1SzDH4QW/URgNYgZTkjA4UkwJUgGXng+6DX1zLfmoymdXo17xh5zmRJ6Q42BWCfc2oJfdAr+Yv+AP9Cb7OJ3H/2JG1HNGz/84klThPVCc=);strokeColor=none;spacingTop=-3;spacingBottom=-3;spacingLeft=-3;spacingRight=-3;points=[];labelBackgroundColor=none;rounded=0;html=1;whiteSpace=wrap;" vertex="1" parent="Qs-pVyy2RuvGPjBRmzeA-23">
          <mxGeometry x="30" y="33.68421052631579" height="4.2105263157894735" as="geometry" />
        </mxCell>
        <mxCell id="Qs-pVyy2RuvGPjBRmzeA-31" style="vsdxID=13;fillColor=#000000;gradientColor=none;shape=stencil(nZBLDoAgDERP0z3SIyjew0SURgSD+Lu9kMZoXLhwN9O+tukAlrNpJg1SzDH4QW/URgNYgZTkjA4UkwJUgGXng+6DX1zLfmoymdXo17xh5zmRJ6Q42BWCfc2oJfdAr+Yv+AP9Cb7OJ3H/2JG1HNGz/84klThPVCc=);strokeColor=none;spacingTop=-3;spacingBottom=-3;spacingLeft=-3;spacingRight=-3;points=[];labelBackgroundColor=none;rounded=0;html=1;whiteSpace=wrap;" vertex="1" parent="Qs-pVyy2RuvGPjBRmzeA-23">
          <mxGeometry x="34" y="33.68421052631579" height="4.2105263157894735" as="geometry" />
        </mxCell>
        <mxCell id="Qs-pVyy2RuvGPjBRmzeA-32" style="vsdxID=14;fillColor=#000000;gradientColor=none;shape=stencil(nZBLDoAgDERP0z3SIyjew0SURgSD+Lu9kMZoXLhwN9O+tukAlrNpJg1SzDH4QW/URgNYgZTkjA4UkwJUgGXng+6DX1zLfmoymdXo17xh5zmRJ6Q42BWCfc2oJfdAr+Yv+AP9Cb7OJ3H/2JG1HNGz/84klThPVCc=);strokeColor=none;spacingTop=-3;spacingBottom=-3;spacingLeft=-3;spacingRight=-3;points=[];labelBackgroundColor=none;rounded=0;html=1;whiteSpace=wrap;" vertex="1" parent="Qs-pVyy2RuvGPjBRmzeA-23">
          <mxGeometry x="38" y="33.68421052631579" height="4.2105263157894735" as="geometry" />
        </mxCell>
        <mxCell id="Qs-pVyy2RuvGPjBRmzeA-33" style="vsdxID=15;fillColor=#000000;gradientColor=none;shape=stencil(UzV2Ls5ILEhVNTIoLinKz04tz0wpyVA1dlE1MsrMy0gtyiwBslSNXVWNndPyi1LTi/JL81Ig/IJEkEoQKze/DGRCBUSfoYEBSI+RQSUq3w2iOCczD0kx2UrxKDTTMzUhW62ZpZ6RMW71lsZ6JmaUacDjGvSgI0EpWtABGYj4ScvMyYFEL7I8enwChSBpwdgVAA==);strokeColor=none;spacingTop=-3;spacingBottom=-3;spacingLeft=-3;spacingRight=-3;points=[];labelBackgroundColor=none;rounded=0;html=1;whiteSpace=wrap;" vertex="1" parent="Qs-pVyy2RuvGPjBRmzeA-23">
          <mxGeometry x="20" y="33.68421052631579" width="22" height="4.2105263157894735" as="geometry" />
        </mxCell>
        <mxCell id="Qs-pVyy2RuvGPjBRmzeA-34" value="" style="edgeStyle=orthogonalEdgeStyle;rounded=0;orthogonalLoop=1;jettySize=auto;html=1;" edge="1" parent="1" source="Qs-pVyy2RuvGPjBRmzeA-35" target="Qs-pVyy2RuvGPjBRmzeA-50">
          <mxGeometry relative="1" as="geometry" />
        </mxCell>
        <mxCell id="Qs-pVyy2RuvGPjBRmzeA-91" value="" style="edgeStyle=orthogonalEdgeStyle;rounded=0;orthogonalLoop=1;jettySize=auto;html=1;" edge="1" parent="1" source="Qs-pVyy2RuvGPjBRmzeA-35" target="Qs-pVyy2RuvGPjBRmzeA-90">
          <mxGeometry relative="1" as="geometry" />
        </mxCell>
        <mxCell id="Qs-pVyy2RuvGPjBRmzeA-35" style="vsdxID=5;fillColor=none;gradientColor=none;points=[];labelBackgroundColor=none;rounded=0;strokeColor=none;html=1;whiteSpace=wrap;" vertex="1" parent="1">
          <mxGeometry x="1200" y="330" width="50" height="40" as="geometry" />
        </mxCell>
        <mxCell id="Qs-pVyy2RuvGPjBRmzeA-36" style="vsdxID=6;fillColor=#000000;gradientColor=none;shape=stencil(pZLNDsIgEISfZq/NAomp51rfo0mpEBEain9vL7gxWK0m4m0Y5lvYZEA0k+pGCRyn4N1ennUfFIgNcK6tkl6HqEC0IJrBebnz7mh7Oo9dSiZ1cKc04UJcvaoYSxTHKzlMVPX67mwJMNp+BbKzCOR5xcDPX3oD5kszxFkcP88uDD5eWF4Q/wiXRqPIHRi0MVSh5/vXzkSL+ibaGw==);strokeColor=none;spacingTop=-3;spacingBottom=-3;spacingLeft=-3;spacingRight=-3;points=[];labelBackgroundColor=none;rounded=0;html=1;whiteSpace=wrap;" vertex="1" parent="Qs-pVyy2RuvGPjBRmzeA-35">
          <mxGeometry x="26" y="10.526315789473683" width="14" height="14.736842105263158" as="geometry" />
        </mxCell>
        <mxCell id="Qs-pVyy2RuvGPjBRmzeA-37" style="vsdxID=7;fillColor=#000000;gradientColor=none;shape=stencil(UzV2Ls5ILEhVNTIoLinKz04tz0wpyVA1dlE1MsrMy0gtyiwBslSNXVWNndPyi1LTi/JL81Ig/IJEkEoQKze/DGRCBUSfoYEBSI+RQSUq3w2iOCczD0kx2UotjfRMTXArtjTVMzClTIO5nokZsa4hRS0eL6IHHQlK0YIOyEDET1pmTg4kepHl0eMTKARJC8auAA==);strokeColor=none;spacingTop=-3;spacingBottom=-3;spacingLeft=-3;spacingRight=-3;points=[];labelBackgroundColor=none;rounded=0;html=1;whiteSpace=wrap;" vertex="1" parent="Qs-pVyy2RuvGPjBRmzeA-35">
          <mxGeometry x="8" y="4.2105263157894735" width="42" height="29.473684210526315" as="geometry" />
        </mxCell>
        <mxCell id="Qs-pVyy2RuvGPjBRmzeA-38" style="vsdxID=8;fillColor=#000000;gradientColor=none;shape=stencil(pZLdDsIgDIWfhluC7Rx6Ped7LBkTIsLC8O/tBYnREWeyeXdavtOW5BCsBtn0ggAbvLNHcVWtlwR3BEAZKZzyQRGsCVaddeLg7Nm0qe6bSEZ1spc44ZZ8Jae8iC5g99RZU755NvaJ18r85LcFjeWUAYFC+Z9h7kU5P/7xirERzaZHLwRfG76i+fpZ8FI0iHcAOqV1ys/nex6Y0Ephw/oB);strokeColor=none;spacingTop=-3;spacingBottom=-3;spacingLeft=-3;spacingRight=-3;points=[];labelBackgroundColor=none;rounded=0;html=1;whiteSpace=wrap;" vertex="1" parent="Qs-pVyy2RuvGPjBRmzeA-35">
          <mxGeometry width="6" height="37.89473684210526" as="geometry" />
        </mxCell>
        <mxCell id="Qs-pVyy2RuvGPjBRmzeA-39" style="vsdxID=9;fillColor=#000000;gradientColor=none;shape=stencil(nZRLEoIwDIZP0y0TGpVx7eMejqJ0RHAqKNxeMDDERiq6a8OX5s+DKFzdkt01Vhpuhc3P8cMcikThWmltsiS2pmhOCjcKV8fcxiebl9mB7tddS7anS35vX6jIbw6ti4aarloHEb4sW6L3pSU8JGAxD5Zh5xK6PlBpMkVRoKOO6kw4C2DZUSgpfJMzEpw7SD19cC5R6qnQSVyIGQnOEqilnj44K0Yt9fTBOfUx89RkrEkcn1Inzkv1lexILdWP1UlMiHeefpUJ7xLhqzzwVdENCOqP9oUA/or0wPShHZ50Y3gGdmAm5TrgP/2mX3L1DKmv89PJ5jCsqqNJU9p0/Lu72hoTrUXcPAE=);strokeColor=none;spacingTop=-3;spacingBottom=-3;spacingLeft=-3;spacingRight=-3;points=[];labelBackgroundColor=none;rounded=0;html=1;whiteSpace=wrap;" vertex="1" parent="Qs-pVyy2RuvGPjBRmzeA-35">
          <mxGeometry x="10" y="12.631578947368421" width="8" height="8.421052631578947" as="geometry" />
        </mxCell>
        <mxCell id="Qs-pVyy2RuvGPjBRmzeA-40" style="vsdxID=10;fillColor=#000000;gradientColor=none;shape=stencil(nZBLDoAgDERP0z3SIyjew0SURgSD+Lu9kMZoXLhwN9O+tukAlrNpJg1SzDH4QW/URgNYgZTkjA4UkwJUgGXng+6DX1zLfmoymdXo17xh5zmRJ6Q42BWCfc2oJfdAr+Yv+AP9Cb7OJ3H/2JG1HNGz/84klThPVCc=);strokeColor=none;spacingTop=-3;spacingBottom=-3;spacingLeft=-3;spacingRight=-3;points=[];labelBackgroundColor=none;rounded=0;html=1;whiteSpace=wrap;" vertex="1" parent="Qs-pVyy2RuvGPjBRmzeA-35">
          <mxGeometry x="18" y="16.842105263157894" width="6" height="2.1052631578947367" as="geometry" />
        </mxCell>
        <mxCell id="Qs-pVyy2RuvGPjBRmzeA-41" style="vsdxID=11;fillColor=#000000;gradientColor=none;shape=stencil(nZBLDoAgDERP0z3SIyjew0SURgSD+Lu9kMZoXLhwN9O+tukAlrNpJg1SzDH4QW/URgNYgZTkjA4UkwJUgGXng+6DX1zLfmoymdXo17xh5zmRJ6Q42BWCfc2oJfdAr+Yv+AP9Cb7OJ3H/2JG1HNGz/84klThPVCc=);strokeColor=none;spacingTop=-3;spacingBottom=-3;spacingLeft=-3;spacingRight=-3;points=[];labelBackgroundColor=none;rounded=0;html=1;whiteSpace=wrap;" vertex="1" parent="Qs-pVyy2RuvGPjBRmzeA-35">
          <mxGeometry x="26" y="33.68421052631579" height="4.2105263157894735" as="geometry" />
        </mxCell>
        <mxCell id="Qs-pVyy2RuvGPjBRmzeA-42" style="vsdxID=12;fillColor=#000000;gradientColor=none;shape=stencil(nZBLDoAgDERP0z3SIyjew0SURgSD+Lu9kMZoXLhwN9O+tukAlrNpJg1SzDH4QW/URgNYgZTkjA4UkwJUgGXng+6DX1zLfmoymdXo17xh5zmRJ6Q42BWCfc2oJfdAr+Yv+AP9Cb7OJ3H/2JG1HNGz/84klThPVCc=);strokeColor=none;spacingTop=-3;spacingBottom=-3;spacingLeft=-3;spacingRight=-3;points=[];labelBackgroundColor=none;rounded=0;html=1;whiteSpace=wrap;" vertex="1" parent="Qs-pVyy2RuvGPjBRmzeA-35">
          <mxGeometry x="30" y="33.68421052631579" height="4.2105263157894735" as="geometry" />
        </mxCell>
        <mxCell id="Qs-pVyy2RuvGPjBRmzeA-43" style="vsdxID=13;fillColor=#000000;gradientColor=none;shape=stencil(nZBLDoAgDERP0z3SIyjew0SURgSD+Lu9kMZoXLhwN9O+tukAlrNpJg1SzDH4QW/URgNYgZTkjA4UkwJUgGXng+6DX1zLfmoymdXo17xh5zmRJ6Q42BWCfc2oJfdAr+Yv+AP9Cb7OJ3H/2JG1HNGz/84klThPVCc=);strokeColor=none;spacingTop=-3;spacingBottom=-3;spacingLeft=-3;spacingRight=-3;points=[];labelBackgroundColor=none;rounded=0;html=1;whiteSpace=wrap;" vertex="1" parent="Qs-pVyy2RuvGPjBRmzeA-35">
          <mxGeometry x="34" y="33.68421052631579" height="4.2105263157894735" as="geometry" />
        </mxCell>
        <mxCell id="Qs-pVyy2RuvGPjBRmzeA-44" style="vsdxID=14;fillColor=#000000;gradientColor=none;shape=stencil(nZBLDoAgDERP0z3SIyjew0SURgSD+Lu9kMZoXLhwN9O+tukAlrNpJg1SzDH4QW/URgNYgZTkjA4UkwJUgGXng+6DX1zLfmoymdXo17xh5zmRJ6Q42BWCfc2oJfdAr+Yv+AP9Cb7OJ3H/2JG1HNGz/84klThPVCc=);strokeColor=none;spacingTop=-3;spacingBottom=-3;spacingLeft=-3;spacingRight=-3;points=[];labelBackgroundColor=none;rounded=0;html=1;whiteSpace=wrap;" vertex="1" parent="Qs-pVyy2RuvGPjBRmzeA-35">
          <mxGeometry x="38" y="33.68421052631579" height="4.2105263157894735" as="geometry" />
        </mxCell>
        <mxCell id="Qs-pVyy2RuvGPjBRmzeA-45" style="vsdxID=15;fillColor=#000000;gradientColor=none;shape=stencil(UzV2Ls5ILEhVNTIoLinKz04tz0wpyVA1dlE1MsrMy0gtyiwBslSNXVWNndPyi1LTi/JL81Ig/IJEkEoQKze/DGRCBUSfoYEBSI+RQSUq3w2iOCczD0kx2UrxKDTTMzUhW62ZpZ6RMW71lsZ6JmaUacDjGvSgI0EpWtABGYj4ScvMyYFEL7I8enwChSBpwdgVAA==);strokeColor=none;spacingTop=-3;spacingBottom=-3;spacingLeft=-3;spacingRight=-3;points=[];labelBackgroundColor=none;rounded=0;html=1;whiteSpace=wrap;" vertex="1" parent="Qs-pVyy2RuvGPjBRmzeA-35">
          <mxGeometry x="20" y="33.68421052631579" width="22" height="4.2105263157894735" as="geometry" />
        </mxCell>
        <mxCell id="Qs-pVyy2RuvGPjBRmzeA-46" style="vsdxID=5;fillColor=none;gradientColor=none;points=[];labelBackgroundColor=none;rounded=0;strokeColor=none;html=1;whiteSpace=wrap;" vertex="1" parent="1">
          <mxGeometry x="1130" y="170.00000000000003" width="110" height="40" as="geometry" />
        </mxCell>
        <mxCell id="Qs-pVyy2RuvGPjBRmzeA-47" style="vsdxID=6;fillColor=#000000;gradientColor=none;shape=stencil(UzV2Ls5ILEhVNTIoLinKz04tz0wpyVA1dlE1MsrMy0gtyiwBslSNXVWNndPyi1LTi/JL81Ig/IJEkEoQKze/DGRCBUSfpZmeGUiTkUElRMBcz8gULOAGUZ6TmYdPuaWRnjke9cZ6JpQoJ9Ex6MpRvWpoYICi2gC3yWQqhNmAVSm69SQppoNSIAORSNIyc3IgaQxZHj1RAYUgCdLYFQA=);strokeColor=none;spacingTop=-3;spacingBottom=-3;spacingLeft=-3;spacingRight=-3;points=[];labelBackgroundColor=none;rounded=0;html=1;whiteSpace=wrap;" vertex="1" parent="Qs-pVyy2RuvGPjBRmzeA-46">
          <mxGeometry width="110.00000000000001" height="40" as="geometry" />
        </mxCell>
        <mxCell id="Qs-pVyy2RuvGPjBRmzeA-48" style="vsdxID=7;fillColor=#000000;gradientColor=none;shape=stencil(pZXdbsIwDIWfJrdWbOev1wzeA4lCI7oWlbLB29MSIaZtbUR959jni06k6Fjx6lxtT6Uife679lh+x11fKf5QRLGpyi72Q6V4rXi1b7vy0LWXZpfOp+2oHKvP9mu84Zo47yDgSJG+pQ5acPzobBJQx2YW0NNiYsBiuThjRS8XFxYYp8VowBQygBHITgPswQUZkHmwI2CSARlLwYJFGRAMcJj5bAHIyQCPEGYAx+C9DMhYsg4syYCMJUOgWQZkLLEDEgIZS4TgjQwo6Jkf/wMerBBAPRNfz+Ey8buh+wcYilfG72NdpxXxc/57JwyttE94fQc=);strokeColor=none;spacingTop=-3;spacingBottom=-3;spacingLeft=-3;spacingRight=-3;points=[];labelBackgroundColor=none;rounded=0;html=1;whiteSpace=wrap;" vertex="1" parent="Qs-pVyy2RuvGPjBRmzeA-46">
          <mxGeometry x="10.645555555555557" y="8.57" width="26.02111111111111" height="17.14" as="geometry" />
        </mxCell>
        <mxCell id="Qs-pVyy2RuvGPjBRmzeA-49" style="vsdxID=8;fillColor=#000000;gradientColor=none;shape=stencil(pdXbboMwDAbgp8mtFds5Xnfde1QqHdEYVJSd3n6waGrVikTDd8H5P2QkZCveXdrDuVGkL9M4vDaf6Ti1ip8UUerbZkzTfFK8V7w7DWPzMg7v/TE/nw9Lcjm9DR/LG76y8w4CLor0d66gBce/lecMutQXgV4PE4I328OVVvT2cLTAuB5GAybKACOQXQfsgFgGKh/sCJhkoNJSsGBRBoIBDoWfLQA5GfAIoQAcg/cyUGnJOrAkA5WWDIFmGai0xAZ8kIFKS6SBogxEAowF4MEaGUBdGF9/l9vC/x26D2A+XGf8KXVdXhG39/c7YS7lfcL7Hw==);strokeColor=none;spacingTop=-3;spacingBottom=-3;spacingLeft=-3;spacingRight=-3;points=[];labelBackgroundColor=none;rounded=0;html=1;whiteSpace=wrap;" vertex="1" parent="Qs-pVyy2RuvGPjBRmzeA-46">
          <mxGeometry x="39.032258064516135" y="8.571428571428571" width="24.83870967741936" height="17.142857142857142" as="geometry" />
        </mxCell>
        <mxCell id="Qs-pVyy2RuvGPjBRmzeA-50" style="vsdxID=9;fillColor=#000000;gradientColor=none;shape=stencil(pZXdbsIwDIWfJrdWbOev1wzeA4lCI7oWlbLB29MSIaZtbUR959jni06k6Fjx6lxtT6Uife679lh+x11fKf5QRLGpyi72Q6V4rXi1b7vy0LWXZpfOp+2oHKvP9mu84Zo47yDgSJG+pQ5acPzobBJQx2YW0NNiYsBiuThjRS8XFxYYp8VowBQygBHITgPswQUZkHmwI2CSARlLwYJFGRAMcJj5bAHIyQCPEGYAx+C9DMhYsg4syYCMJUOgWQZkLLEDEgIZS4TgjQwo6Jkf/wMerBBAPRNfz+Ey8buh+wcYilfG72NdpxXxc/57JwyttE94fQc=);strokeColor=none;spacingTop=-3;spacingBottom=-3;spacingLeft=-3;spacingRight=-3;points=[];labelBackgroundColor=none;rounded=0;html=1;whiteSpace=wrap;" vertex="1" parent="Qs-pVyy2RuvGPjBRmzeA-46">
          <mxGeometry x="70.96774193548387" y="8.571428571428571" width="24.83870967741936" height="17.142857142857142" as="geometry" />
        </mxCell>
        <mxCell id="Qs-pVyy2RuvGPjBRmzeA-51" value="" style="shadow=0;dashed=0;html=1;strokeColor=none;fillColor=#4495D1;labelPosition=center;verticalLabelPosition=bottom;verticalAlign=top;align=center;outlineConnect=0;shape=mxgraph.veeam.2d.virtual_machine;" vertex="1" parent="1">
          <mxGeometry x="1025.2" y="80.00000000000003" width="44.8" height="44" as="geometry" />
        </mxCell>
        <mxCell id="Qs-pVyy2RuvGPjBRmzeA-52" value="" style="shadow=0;dashed=0;html=1;strokeColor=none;fillColor=#4495D1;labelPosition=center;verticalLabelPosition=bottom;verticalAlign=top;align=center;outlineConnect=0;shape=mxgraph.veeam.vm_windows;" vertex="1" parent="1">
          <mxGeometry x="1130" y="80.00000000000003" width="57.2" height="55.2" as="geometry" />
        </mxCell>
        <mxCell id="Qs-pVyy2RuvGPjBRmzeA-53" value="" style="shadow=0;dashed=0;html=1;strokeColor=none;fillColor=#4495D1;labelPosition=center;verticalLabelPosition=bottom;verticalAlign=top;align=center;outlineConnect=0;shape=mxgraph.veeam.vm_linux;" vertex="1" parent="1">
          <mxGeometry x="1250" y="80" width="57.2" height="55.2" as="geometry" />
        </mxCell>
        <mxCell id="Qs-pVyy2RuvGPjBRmzeA-54" value="" style="edgeStyle=orthogonalEdgeStyle;rounded=0;orthogonalLoop=1;jettySize=auto;html=1;" edge="1" parent="1" source="Qs-pVyy2RuvGPjBRmzeA-55" target="Qs-pVyy2RuvGPjBRmzeA-80">
          <mxGeometry relative="1" as="geometry" />
        </mxCell>
        <mxCell id="Qs-pVyy2RuvGPjBRmzeA-93" value="" style="edgeStyle=orthogonalEdgeStyle;rounded=0;orthogonalLoop=1;jettySize=auto;html=1;" edge="1" parent="1" source="Qs-pVyy2RuvGPjBRmzeA-55" target="Qs-pVyy2RuvGPjBRmzeA-92">
          <mxGeometry relative="1" as="geometry" />
        </mxCell>
        <mxCell id="Qs-pVyy2RuvGPjBRmzeA-55" style="vsdxID=5;fillColor=none;gradientColor=none;points=[];labelBackgroundColor=none;rounded=0;strokeColor=none;html=1;whiteSpace=wrap;" vertex="1" parent="1">
          <mxGeometry x="1310" y="330" width="50" height="40" as="geometry" />
        </mxCell>
        <mxCell id="Qs-pVyy2RuvGPjBRmzeA-56" style="vsdxID=6;fillColor=#000000;gradientColor=none;shape=stencil(pZLNDsIgEISfZq/NAomp51rfo0mpEBEain9vL7gxWK0m4m0Y5lvYZEA0k+pGCRyn4N1ennUfFIgNcK6tkl6HqEC0IJrBebnz7mh7Oo9dSiZ1cKc04UJcvaoYSxTHKzlMVPX67mwJMNp+BbKzCOR5xcDPX3oD5kszxFkcP88uDD5eWF4Q/wiXRqPIHRi0MVSh5/vXzkSL+ibaGw==);strokeColor=none;spacingTop=-3;spacingBottom=-3;spacingLeft=-3;spacingRight=-3;points=[];labelBackgroundColor=none;rounded=0;html=1;whiteSpace=wrap;" vertex="1" parent="Qs-pVyy2RuvGPjBRmzeA-55">
          <mxGeometry x="26" y="10.526315789473683" width="14" height="14.736842105263158" as="geometry" />
        </mxCell>
        <mxCell id="Qs-pVyy2RuvGPjBRmzeA-57" style="vsdxID=7;fillColor=#000000;gradientColor=none;shape=stencil(UzV2Ls5ILEhVNTIoLinKz04tz0wpyVA1dlE1MsrMy0gtyiwBslSNXVWNndPyi1LTi/JL81Ig/IJEkEoQKze/DGRCBUSfoYEBSI+RQSUq3w2iOCczD0kx2UotjfRMTXArtjTVMzClTIO5nokZsa4hRS0eL6IHHQlK0YIOyEDET1pmTg4kepHl0eMTKARJC8auAA==);strokeColor=none;spacingTop=-3;spacingBottom=-3;spacingLeft=-3;spacingRight=-3;points=[];labelBackgroundColor=none;rounded=0;html=1;whiteSpace=wrap;" vertex="1" parent="Qs-pVyy2RuvGPjBRmzeA-55">
          <mxGeometry x="8" y="4.2105263157894735" width="42" height="29.473684210526315" as="geometry" />
        </mxCell>
        <mxCell id="Qs-pVyy2RuvGPjBRmzeA-58" style="vsdxID=8;fillColor=#000000;gradientColor=none;shape=stencil(pZLdDsIgDIWfhluC7Rx6Ped7LBkTIsLC8O/tBYnREWeyeXdavtOW5BCsBtn0ggAbvLNHcVWtlwR3BEAZKZzyQRGsCVaddeLg7Nm0qe6bSEZ1spc44ZZ8Jae8iC5g99RZU755NvaJ18r85LcFjeWUAYFC+Z9h7kU5P/7xirERzaZHLwRfG76i+fpZ8FI0iHcAOqV1ys/nex6Y0Ephw/oB);strokeColor=none;spacingTop=-3;spacingBottom=-3;spacingLeft=-3;spacingRight=-3;points=[];labelBackgroundColor=none;rounded=0;html=1;whiteSpace=wrap;" vertex="1" parent="Qs-pVyy2RuvGPjBRmzeA-55">
          <mxGeometry width="6" height="37.89473684210526" as="geometry" />
        </mxCell>
        <mxCell id="Qs-pVyy2RuvGPjBRmzeA-59" style="vsdxID=9;fillColor=#000000;gradientColor=none;shape=stencil(nZRLEoIwDIZP0y0TGpVx7eMejqJ0RHAqKNxeMDDERiq6a8OX5s+DKFzdkt01Vhpuhc3P8cMcikThWmltsiS2pmhOCjcKV8fcxiebl9mB7tddS7anS35vX6jIbw6ti4aarloHEb4sW6L3pSU8JGAxD5Zh5xK6PlBpMkVRoKOO6kw4C2DZUSgpfJMzEpw7SD19cC5R6qnQSVyIGQnOEqilnj44K0Yt9fTBOfUx89RkrEkcn1Inzkv1lexILdWP1UlMiHeefpUJ7xLhqzzwVdENCOqP9oUA/or0wPShHZ50Y3gGdmAm5TrgP/2mX3L1DKmv89PJ5jCsqqNJU9p0/Lu72hoTrUXcPAE=);strokeColor=none;spacingTop=-3;spacingBottom=-3;spacingLeft=-3;spacingRight=-3;points=[];labelBackgroundColor=none;rounded=0;html=1;whiteSpace=wrap;" vertex="1" parent="Qs-pVyy2RuvGPjBRmzeA-55">
          <mxGeometry x="10" y="12.631578947368421" width="8" height="8.421052631578947" as="geometry" />
        </mxCell>
        <mxCell id="Qs-pVyy2RuvGPjBRmzeA-60" style="vsdxID=10;fillColor=#000000;gradientColor=none;shape=stencil(nZBLDoAgDERP0z3SIyjew0SURgSD+Lu9kMZoXLhwN9O+tukAlrNpJg1SzDH4QW/URgNYgZTkjA4UkwJUgGXng+6DX1zLfmoymdXo17xh5zmRJ6Q42BWCfc2oJfdAr+Yv+AP9Cb7OJ3H/2JG1HNGz/84klThPVCc=);strokeColor=none;spacingTop=-3;spacingBottom=-3;spacingLeft=-3;spacingRight=-3;points=[];labelBackgroundColor=none;rounded=0;html=1;whiteSpace=wrap;" vertex="1" parent="Qs-pVyy2RuvGPjBRmzeA-55">
          <mxGeometry x="18" y="16.842105263157894" width="6" height="2.1052631578947367" as="geometry" />
        </mxCell>
        <mxCell id="Qs-pVyy2RuvGPjBRmzeA-61" style="vsdxID=11;fillColor=#000000;gradientColor=none;shape=stencil(nZBLDoAgDERP0z3SIyjew0SURgSD+Lu9kMZoXLhwN9O+tukAlrNpJg1SzDH4QW/URgNYgZTkjA4UkwJUgGXng+6DX1zLfmoymdXo17xh5zmRJ6Q42BWCfc2oJfdAr+Yv+AP9Cb7OJ3H/2JG1HNGz/84klThPVCc=);strokeColor=none;spacingTop=-3;spacingBottom=-3;spacingLeft=-3;spacingRight=-3;points=[];labelBackgroundColor=none;rounded=0;html=1;whiteSpace=wrap;" vertex="1" parent="Qs-pVyy2RuvGPjBRmzeA-55">
          <mxGeometry x="26" y="33.68421052631579" height="4.2105263157894735" as="geometry" />
        </mxCell>
        <mxCell id="Qs-pVyy2RuvGPjBRmzeA-62" style="vsdxID=12;fillColor=#000000;gradientColor=none;shape=stencil(nZBLDoAgDERP0z3SIyjew0SURgSD+Lu9kMZoXLhwN9O+tukAlrNpJg1SzDH4QW/URgNYgZTkjA4UkwJUgGXng+6DX1zLfmoymdXo17xh5zmRJ6Q42BWCfc2oJfdAr+Yv+AP9Cb7OJ3H/2JG1HNGz/84klThPVCc=);strokeColor=none;spacingTop=-3;spacingBottom=-3;spacingLeft=-3;spacingRight=-3;points=[];labelBackgroundColor=none;rounded=0;html=1;whiteSpace=wrap;" vertex="1" parent="Qs-pVyy2RuvGPjBRmzeA-55">
          <mxGeometry x="30" y="33.68421052631579" height="4.2105263157894735" as="geometry" />
        </mxCell>
        <mxCell id="Qs-pVyy2RuvGPjBRmzeA-63" style="vsdxID=13;fillColor=#000000;gradientColor=none;shape=stencil(nZBLDoAgDERP0z3SIyjew0SURgSD+Lu9kMZoXLhwN9O+tukAlrNpJg1SzDH4QW/URgNYgZTkjA4UkwJUgGXng+6DX1zLfmoymdXo17xh5zmRJ6Q42BWCfc2oJfdAr+Yv+AP9Cb7OJ3H/2JG1HNGz/84klThPVCc=);strokeColor=none;spacingTop=-3;spacingBottom=-3;spacingLeft=-3;spacingRight=-3;points=[];labelBackgroundColor=none;rounded=0;html=1;whiteSpace=wrap;" vertex="1" parent="Qs-pVyy2RuvGPjBRmzeA-55">
          <mxGeometry x="34" y="33.68421052631579" height="4.2105263157894735" as="geometry" />
        </mxCell>
        <mxCell id="Qs-pVyy2RuvGPjBRmzeA-64" style="vsdxID=14;fillColor=#000000;gradientColor=none;shape=stencil(nZBLDoAgDERP0z3SIyjew0SURgSD+Lu9kMZoXLhwN9O+tukAlrNpJg1SzDH4QW/URgNYgZTkjA4UkwJUgGXng+6DX1zLfmoymdXo17xh5zmRJ6Q42BWCfc2oJfdAr+Yv+AP9Cb7OJ3H/2JG1HNGz/84klThPVCc=);strokeColor=none;spacingTop=-3;spacingBottom=-3;spacingLeft=-3;spacingRight=-3;points=[];labelBackgroundColor=none;rounded=0;html=1;whiteSpace=wrap;" vertex="1" parent="Qs-pVyy2RuvGPjBRmzeA-55">
          <mxGeometry x="38" y="33.68421052631579" height="4.2105263157894735" as="geometry" />
        </mxCell>
        <mxCell id="Qs-pVyy2RuvGPjBRmzeA-65" style="vsdxID=15;fillColor=#000000;gradientColor=none;shape=stencil(UzV2Ls5ILEhVNTIoLinKz04tz0wpyVA1dlE1MsrMy0gtyiwBslSNXVWNndPyi1LTi/JL81Ig/IJEkEoQKze/DGRCBUSfoYEBSI+RQSUq3w2iOCczD0kx2UrxKDTTMzUhW62ZpZ6RMW71lsZ6JmaUacDjGvSgI0EpWtABGYj4ScvMyYFEL7I8enwChSBpwdgVAA==);strokeColor=none;spacingTop=-3;spacingBottom=-3;spacingLeft=-3;spacingRight=-3;points=[];labelBackgroundColor=none;rounded=0;html=1;whiteSpace=wrap;" vertex="1" parent="Qs-pVyy2RuvGPjBRmzeA-55">
          <mxGeometry x="20" y="33.68421052631579" width="22" height="4.2105263157894735" as="geometry" />
        </mxCell>
        <mxCell id="Qs-pVyy2RuvGPjBRmzeA-66" value="" style="edgeStyle=orthogonalEdgeStyle;rounded=0;orthogonalLoop=1;jettySize=auto;html=1;" edge="1" parent="1" source="Qs-pVyy2RuvGPjBRmzeA-67" target="Qs-pVyy2RuvGPjBRmzeA-82">
          <mxGeometry relative="1" as="geometry" />
        </mxCell>
        <mxCell id="Qs-pVyy2RuvGPjBRmzeA-95" value="" style="edgeStyle=orthogonalEdgeStyle;rounded=0;orthogonalLoop=1;jettySize=auto;html=1;" edge="1" parent="1" source="Qs-pVyy2RuvGPjBRmzeA-67" target="Qs-pVyy2RuvGPjBRmzeA-94">
          <mxGeometry relative="1" as="geometry" />
        </mxCell>
        <mxCell id="Qs-pVyy2RuvGPjBRmzeA-67" style="vsdxID=5;fillColor=none;gradientColor=none;points=[];labelBackgroundColor=none;rounded=0;strokeColor=none;html=1;whiteSpace=wrap;" vertex="1" parent="1">
          <mxGeometry x="1410" y="330" width="50" height="40" as="geometry" />
        </mxCell>
        <mxCell id="Qs-pVyy2RuvGPjBRmzeA-68" style="vsdxID=6;fillColor=#000000;gradientColor=none;shape=stencil(pZLNDsIgEISfZq/NAomp51rfo0mpEBEain9vL7gxWK0m4m0Y5lvYZEA0k+pGCRyn4N1ennUfFIgNcK6tkl6HqEC0IJrBebnz7mh7Oo9dSiZ1cKc04UJcvaoYSxTHKzlMVPX67mwJMNp+BbKzCOR5xcDPX3oD5kszxFkcP88uDD5eWF4Q/wiXRqPIHRi0MVSh5/vXzkSL+ibaGw==);strokeColor=none;spacingTop=-3;spacingBottom=-3;spacingLeft=-3;spacingRight=-3;points=[];labelBackgroundColor=none;rounded=0;html=1;whiteSpace=wrap;" vertex="1" parent="Qs-pVyy2RuvGPjBRmzeA-67">
          <mxGeometry x="26" y="10.526315789473683" width="14" height="14.736842105263158" as="geometry" />
        </mxCell>
        <mxCell id="Qs-pVyy2RuvGPjBRmzeA-69" style="vsdxID=7;fillColor=#000000;gradientColor=none;shape=stencil(UzV2Ls5ILEhVNTIoLinKz04tz0wpyVA1dlE1MsrMy0gtyiwBslSNXVWNndPyi1LTi/JL81Ig/IJEkEoQKze/DGRCBUSfoYEBSI+RQSUq3w2iOCczD0kx2UotjfRMTXArtjTVMzClTIO5nokZsa4hRS0eL6IHHQlK0YIOyEDET1pmTg4kepHl0eMTKARJC8auAA==);strokeColor=none;spacingTop=-3;spacingBottom=-3;spacingLeft=-3;spacingRight=-3;points=[];labelBackgroundColor=none;rounded=0;html=1;whiteSpace=wrap;" vertex="1" parent="Qs-pVyy2RuvGPjBRmzeA-67">
          <mxGeometry x="8" y="4.2105263157894735" width="42" height="29.473684210526315" as="geometry" />
        </mxCell>
        <mxCell id="Qs-pVyy2RuvGPjBRmzeA-70" style="vsdxID=8;fillColor=#000000;gradientColor=none;shape=stencil(pZLdDsIgDIWfhluC7Rx6Ped7LBkTIsLC8O/tBYnREWeyeXdavtOW5BCsBtn0ggAbvLNHcVWtlwR3BEAZKZzyQRGsCVaddeLg7Nm0qe6bSEZ1spc44ZZ8Jae8iC5g99RZU755NvaJ18r85LcFjeWUAYFC+Z9h7kU5P/7xirERzaZHLwRfG76i+fpZ8FI0iHcAOqV1ys/nex6Y0Ephw/oB);strokeColor=none;spacingTop=-3;spacingBottom=-3;spacingLeft=-3;spacingRight=-3;points=[];labelBackgroundColor=none;rounded=0;html=1;whiteSpace=wrap;" vertex="1" parent="Qs-pVyy2RuvGPjBRmzeA-67">
          <mxGeometry width="6" height="37.89473684210526" as="geometry" />
        </mxCell>
        <mxCell id="Qs-pVyy2RuvGPjBRmzeA-71" style="vsdxID=9;fillColor=#000000;gradientColor=none;shape=stencil(nZRLEoIwDIZP0y0TGpVx7eMejqJ0RHAqKNxeMDDERiq6a8OX5s+DKFzdkt01Vhpuhc3P8cMcikThWmltsiS2pmhOCjcKV8fcxiebl9mB7tddS7anS35vX6jIbw6ti4aarloHEb4sW6L3pSU8JGAxD5Zh5xK6PlBpMkVRoKOO6kw4C2DZUSgpfJMzEpw7SD19cC5R6qnQSVyIGQnOEqilnj44K0Yt9fTBOfUx89RkrEkcn1Inzkv1lexILdWP1UlMiHeefpUJ7xLhqzzwVdENCOqP9oUA/or0wPShHZ50Y3gGdmAm5TrgP/2mX3L1DKmv89PJ5jCsqqNJU9p0/Lu72hoTrUXcPAE=);strokeColor=none;spacingTop=-3;spacingBottom=-3;spacingLeft=-3;spacingRight=-3;points=[];labelBackgroundColor=none;rounded=0;html=1;whiteSpace=wrap;" vertex="1" parent="Qs-pVyy2RuvGPjBRmzeA-67">
          <mxGeometry x="10" y="12.631578947368421" width="8" height="8.421052631578947" as="geometry" />
        </mxCell>
        <mxCell id="Qs-pVyy2RuvGPjBRmzeA-72" style="vsdxID=10;fillColor=#000000;gradientColor=none;shape=stencil(nZBLDoAgDERP0z3SIyjew0SURgSD+Lu9kMZoXLhwN9O+tukAlrNpJg1SzDH4QW/URgNYgZTkjA4UkwJUgGXng+6DX1zLfmoymdXo17xh5zmRJ6Q42BWCfc2oJfdAr+Yv+AP9Cb7OJ3H/2JG1HNGz/84klThPVCc=);strokeColor=none;spacingTop=-3;spacingBottom=-3;spacingLeft=-3;spacingRight=-3;points=[];labelBackgroundColor=none;rounded=0;html=1;whiteSpace=wrap;" vertex="1" parent="Qs-pVyy2RuvGPjBRmzeA-67">
          <mxGeometry x="18" y="16.842105263157894" width="6" height="2.1052631578947367" as="geometry" />
        </mxCell>
        <mxCell id="Qs-pVyy2RuvGPjBRmzeA-73" style="vsdxID=11;fillColor=#000000;gradientColor=none;shape=stencil(nZBLDoAgDERP0z3SIyjew0SURgSD+Lu9kMZoXLhwN9O+tukAlrNpJg1SzDH4QW/URgNYgZTkjA4UkwJUgGXng+6DX1zLfmoymdXo17xh5zmRJ6Q42BWCfc2oJfdAr+Yv+AP9Cb7OJ3H/2JG1HNGz/84klThPVCc=);strokeColor=none;spacingTop=-3;spacingBottom=-3;spacingLeft=-3;spacingRight=-3;points=[];labelBackgroundColor=none;rounded=0;html=1;whiteSpace=wrap;" vertex="1" parent="Qs-pVyy2RuvGPjBRmzeA-67">
          <mxGeometry x="26" y="33.68421052631579" height="4.2105263157894735" as="geometry" />
        </mxCell>
        <mxCell id="Qs-pVyy2RuvGPjBRmzeA-74" style="vsdxID=12;fillColor=#000000;gradientColor=none;shape=stencil(nZBLDoAgDERP0z3SIyjew0SURgSD+Lu9kMZoXLhwN9O+tukAlrNpJg1SzDH4QW/URgNYgZTkjA4UkwJUgGXng+6DX1zLfmoymdXo17xh5zmRJ6Q42BWCfc2oJfdAr+Yv+AP9Cb7OJ3H/2JG1HNGz/84klThPVCc=);strokeColor=none;spacingTop=-3;spacingBottom=-3;spacingLeft=-3;spacingRight=-3;points=[];labelBackgroundColor=none;rounded=0;html=1;whiteSpace=wrap;" vertex="1" parent="Qs-pVyy2RuvGPjBRmzeA-67">
          <mxGeometry x="30" y="33.68421052631579" height="4.2105263157894735" as="geometry" />
        </mxCell>
        <mxCell id="Qs-pVyy2RuvGPjBRmzeA-75" style="vsdxID=13;fillColor=#000000;gradientColor=none;shape=stencil(nZBLDoAgDERP0z3SIyjew0SURgSD+Lu9kMZoXLhwN9O+tukAlrNpJg1SzDH4QW/URgNYgZTkjA4UkwJUgGXng+6DX1zLfmoymdXo17xh5zmRJ6Q42BWCfc2oJfdAr+Yv+AP9Cb7OJ3H/2JG1HNGz/84klThPVCc=);strokeColor=none;spacingTop=-3;spacingBottom=-3;spacingLeft=-3;spacingRight=-3;points=[];labelBackgroundColor=none;rounded=0;html=1;whiteSpace=wrap;" vertex="1" parent="Qs-pVyy2RuvGPjBRmzeA-67">
          <mxGeometry x="34" y="33.68421052631579" height="4.2105263157894735" as="geometry" />
        </mxCell>
        <mxCell id="Qs-pVyy2RuvGPjBRmzeA-76" style="vsdxID=14;fillColor=#000000;gradientColor=none;shape=stencil(nZBLDoAgDERP0z3SIyjew0SURgSD+Lu9kMZoXLhwN9O+tukAlrNpJg1SzDH4QW/URgNYgZTkjA4UkwJUgGXng+6DX1zLfmoymdXo17xh5zmRJ6Q42BWCfc2oJfdAr+Yv+AP9Cb7OJ3H/2JG1HNGz/84klThPVCc=);strokeColor=none;spacingTop=-3;spacingBottom=-3;spacingLeft=-3;spacingRight=-3;points=[];labelBackgroundColor=none;rounded=0;html=1;whiteSpace=wrap;" vertex="1" parent="Qs-pVyy2RuvGPjBRmzeA-67">
          <mxGeometry x="38" y="33.68421052631579" height="4.2105263157894735" as="geometry" />
        </mxCell>
        <mxCell id="Qs-pVyy2RuvGPjBRmzeA-77" style="vsdxID=15;fillColor=#000000;gradientColor=none;shape=stencil(UzV2Ls5ILEhVNTIoLinKz04tz0wpyVA1dlE1MsrMy0gtyiwBslSNXVWNndPyi1LTi/JL81Ig/IJEkEoQKze/DGRCBUSfoYEBSI+RQSUq3w2iOCczD0kx2UrxKDTTMzUhW62ZpZ6RMW71lsZ6JmaUacDjGvSgI0EpWtABGYj4ScvMyYFEL7I8enwChSBpwdgVAA==);strokeColor=none;spacingTop=-3;spacingBottom=-3;spacingLeft=-3;spacingRight=-3;points=[];labelBackgroundColor=none;rounded=0;html=1;whiteSpace=wrap;" vertex="1" parent="Qs-pVyy2RuvGPjBRmzeA-67">
          <mxGeometry x="20" y="33.68421052631579" width="22" height="4.2105263157894735" as="geometry" />
        </mxCell>
        <mxCell id="Qs-pVyy2RuvGPjBRmzeA-78" style="vsdxID=5;fillColor=none;gradientColor=none;points=[];labelBackgroundColor=none;rounded=0;strokeColor=none;html=1;whiteSpace=wrap;" vertex="1" parent="1">
          <mxGeometry x="1560" y="230.00000000000003" width="110" height="40" as="geometry" />
        </mxCell>
        <mxCell id="Qs-pVyy2RuvGPjBRmzeA-79" style="vsdxID=6;fillColor=#000000;gradientColor=none;shape=stencil(UzV2Ls5ILEhVNTIoLinKz04tz0wpyVA1dlE1MsrMy0gtyiwBslSNXVWNndPyi1LTi/JL81Ig/IJEkEoQKze/DGRCBUSfpZmeGUiTkUElRMBcz8gULOAGUZ6TmYdPuaWRnjke9cZ6JpQoJ9Ex6MpRvWpoYICi2gC3yWQqhNmAVSm69SQppoNSIAORSNIyc3IgaQxZHj1RAYUgCdLYFQA=);strokeColor=none;spacingTop=-3;spacingBottom=-3;spacingLeft=-3;spacingRight=-3;points=[];labelBackgroundColor=none;rounded=0;html=1;whiteSpace=wrap;" vertex="1" parent="Qs-pVyy2RuvGPjBRmzeA-78">
          <mxGeometry width="110.00000000000001" height="40" as="geometry" />
        </mxCell>
        <mxCell id="Qs-pVyy2RuvGPjBRmzeA-80" style="vsdxID=7;fillColor=#000000;gradientColor=none;shape=stencil(pZXdbsIwDIWfJrdWbOev1wzeA4lCI7oWlbLB29MSIaZtbUR959jni06k6Fjx6lxtT6Uife679lh+x11fKf5QRLGpyi72Q6V4rXi1b7vy0LWXZpfOp+2oHKvP9mu84Zo47yDgSJG+pQ5acPzobBJQx2YW0NNiYsBiuThjRS8XFxYYp8VowBQygBHITgPswQUZkHmwI2CSARlLwYJFGRAMcJj5bAHIyQCPEGYAx+C9DMhYsg4syYCMJUOgWQZkLLEDEgIZS4TgjQwo6Jkf/wMerBBAPRNfz+Ey8buh+wcYilfG72NdpxXxc/57JwyttE94fQc=);strokeColor=none;spacingTop=-3;spacingBottom=-3;spacingLeft=-3;spacingRight=-3;points=[];labelBackgroundColor=none;rounded=0;html=1;whiteSpace=wrap;" vertex="1" parent="Qs-pVyy2RuvGPjBRmzeA-78">
          <mxGeometry x="10.645555555555557" y="8.57" width="26.02111111111111" height="17.14" as="geometry" />
        </mxCell>
        <mxCell id="Qs-pVyy2RuvGPjBRmzeA-81" style="vsdxID=8;fillColor=#000000;gradientColor=none;shape=stencil(pdXbboMwDAbgp8mtFds5Xnfde1QqHdEYVJSd3n6waGrVikTDd8H5P2QkZCveXdrDuVGkL9M4vDaf6Ti1ip8UUerbZkzTfFK8V7w7DWPzMg7v/TE/nw9Lcjm9DR/LG76y8w4CLor0d66gBce/lecMutQXgV4PE4I328OVVvT2cLTAuB5GAybKACOQXQfsgFgGKh/sCJhkoNJSsGBRBoIBDoWfLQA5GfAIoQAcg/cyUGnJOrAkA5WWDIFmGai0xAZ8kIFKS6SBogxEAowF4MEaGUBdGF9/l9vC/x26D2A+XGf8KXVdXhG39/c7YS7lfcL7Hw==);strokeColor=none;spacingTop=-3;spacingBottom=-3;spacingLeft=-3;spacingRight=-3;points=[];labelBackgroundColor=none;rounded=0;html=1;whiteSpace=wrap;" vertex="1" parent="Qs-pVyy2RuvGPjBRmzeA-78">
          <mxGeometry x="39.032258064516135" y="8.571428571428571" width="24.83870967741936" height="17.142857142857142" as="geometry" />
        </mxCell>
        <mxCell id="Qs-pVyy2RuvGPjBRmzeA-82" style="vsdxID=9;fillColor=#000000;gradientColor=none;shape=stencil(pZXdbsIwDIWfJrdWbOev1wzeA4lCI7oWlbLB29MSIaZtbUR959jni06k6Fjx6lxtT6Uife679lh+x11fKf5QRLGpyi72Q6V4rXi1b7vy0LWXZpfOp+2oHKvP9mu84Zo47yDgSJG+pQ5acPzobBJQx2YW0NNiYsBiuThjRS8XFxYYp8VowBQygBHITgPswQUZkHmwI2CSARlLwYJFGRAMcJj5bAHIyQCPEGYAx+C9DMhYsg4syYCMJUOgWQZkLLEDEgIZS4TgjQwo6Jkf/wMerBBAPRNfz+Ey8buh+wcYilfG72NdpxXxc/57JwyttE94fQc=);strokeColor=none;spacingTop=-3;spacingBottom=-3;spacingLeft=-3;spacingRight=-3;points=[];labelBackgroundColor=none;rounded=0;html=1;whiteSpace=wrap;" vertex="1" parent="Qs-pVyy2RuvGPjBRmzeA-78">
          <mxGeometry x="70.96774193548387" y="8.571428571428571" width="24.83870967741936" height="17.142857142857142" as="geometry" />
        </mxCell>
        <mxCell id="Qs-pVyy2RuvGPjBRmzeA-83" value="ESXi Server1" style="text;html=1;align=center;verticalAlign=middle;whiteSpace=wrap;rounded=0;fontSize=20;" vertex="1" parent="1">
          <mxGeometry x="940" y="230" width="130" height="50" as="geometry" />
        </mxCell>
        <mxCell id="Qs-pVyy2RuvGPjBRmzeA-84" value="port1" style="text;html=1;align=center;verticalAlign=middle;whiteSpace=wrap;rounded=0;fontSize=20;" vertex="1" parent="1">
          <mxGeometry x="1025.2" y="610" width="60" height="40" as="geometry" />
        </mxCell>
        <mxCell id="Qs-pVyy2RuvGPjBRmzeA-85" value="port2" style="text;html=1;align=center;verticalAlign=middle;whiteSpace=wrap;rounded=0;fontSize=20;" vertex="1" parent="1">
          <mxGeometry x="1155" y="610" width="60" height="40" as="geometry" />
        </mxCell>
        <mxCell id="Qs-pVyy2RuvGPjBRmzeA-86" value="port3" style="text;html=1;align=center;verticalAlign=middle;whiteSpace=wrap;rounded=0;fontSize=20;" vertex="1" parent="1">
          <mxGeometry x="1280" y="610" width="60" height="40" as="geometry" />
        </mxCell>
        <mxCell id="Qs-pVyy2RuvGPjBRmzeA-87" value="port4" style="text;html=1;align=center;verticalAlign=middle;whiteSpace=wrap;rounded=0;fontSize=20;" vertex="1" parent="1">
          <mxGeometry x="1460" y="610" width="60" height="40" as="geometry" />
        </mxCell>
        <mxCell id="Qs-pVyy2RuvGPjBRmzeA-88" value="" style="shape=waypoint;sketch=0;size=6;pointerEvents=1;points=[];fillColor=none;resizable=0;rotatable=0;perimeter=centerPerimeter;snapToPoint=1;" vertex="1" parent="1">
          <mxGeometry x="1115" y="670" width="20" height="20" as="geometry" />
        </mxCell>
        <mxCell id="Qs-pVyy2RuvGPjBRmzeA-90" value="" style="shape=waypoint;sketch=0;size=6;pointerEvents=1;points=[];fillColor=none;resizable=0;rotatable=0;perimeter=centerPerimeter;snapToPoint=1;" vertex="1" parent="1">
          <mxGeometry x="1215" y="670" width="20" height="20" as="geometry" />
        </mxCell>
        <mxCell id="Qs-pVyy2RuvGPjBRmzeA-92" value="" style="shape=waypoint;sketch=0;size=6;pointerEvents=1;points=[];fillColor=none;resizable=0;rotatable=0;perimeter=centerPerimeter;snapToPoint=1;" vertex="1" parent="1">
          <mxGeometry x="1325" y="670" width="20" height="20" as="geometry" />
        </mxCell>
        <mxCell id="Qs-pVyy2RuvGPjBRmzeA-94" value="" style="shape=waypoint;sketch=0;size=6;pointerEvents=1;points=[];fillColor=none;resizable=0;rotatable=0;perimeter=centerPerimeter;snapToPoint=1;" vertex="1" parent="1">
          <mxGeometry x="1425" y="670" width="20" height="20" as="geometry" />
        </mxCell>
        <mxCell id="Qs-pVyy2RuvGPjBRmzeA-96" value="" style="sketch=0;pointerEvents=1;shadow=0;dashed=0;html=1;strokeColor=none;fillColor=#005F4B;labelPosition=center;verticalLabelPosition=bottom;verticalAlign=top;align=center;outlineConnect=0;shape=mxgraph.veeam2.proxy_server;" vertex="1" parent="1">
          <mxGeometry x="780" y="124" width="40" height="46.8" as="geometry" />
        </mxCell>
      </root>
    </mxGraphModel>
  </diagram>
  <diagram id="VTHW04e8wGBbIp9gkA8I" name="Page-2">
    <mxGraphModel grid="1" page="1" gridSize="10" guides="1" tooltips="1" connect="1" arrows="1" fold="1" pageScale="1" pageWidth="827" pageHeight="1169" math="0" shadow="0">
      <root>
        <mxCell id="0" />
        <mxCell id="1" parent="0" />
      </root>
    </mxGraphModel>
  </diagram>
</mxfile>
